<svg viewBox="0 0 174 173" xmlns="http://www.w3.org/2000/svg">
<path fill-rule="evenodd" clip-rule="evenodd" d="M91.7419 3.08071C89.4543 -1.0269 83.5456 -1.02691 81.258 3.0807L65.2726 31.7844L27.9218 21.1546C23.3997 19.8676 19.2216 24.0457 20.5086 28.5678L30.8668 64.9646L3 81.0535C-1 83.3629 -1 89.1364 3 91.4458L30.9692 107.594L20.5086 144.35C19.2216 148.872 23.3997 153.05 27.9218 151.763L65.2726 141.134L81.258 169.837C83.5456 173.945 89.4543 173.945 91.7419 169.837L107.887 140.847L145.078 151.432C149.6 152.719 153.778 148.54 152.491 144.018L142.172 107.758L171 91.114C175 88.8046 175 83.0311 171 80.7217L142.436 64.2306L152.491 28.8995C153.778 24.3774 149.6 20.1994 145.078 21.4863L107.887 32.0708L91.7419 3.08071ZM87 131C111.853 131 132 110.853 132 86C132 61.1472 111.853 41 87 41C62.1472 41 42 61.1472 42 86C42 110.853 62.1472 131 87 131ZM86.5 142C117.152 142 142 117.152 142 86.5C142 55.8482 117.152 31 86.5 31C55.8482 31 31 55.8482 31 86.5C31 117.152 55.8482 142 86.5 142ZM87 131C111.853 131 132 110.853 132 86C132 61.1472 111.853 41 87 41C62.1472 41 42 61.1472 42 86C42 110.853 62.1472 131 87 131Z" fill="black"/>
</svg>
