<?xml version="1.0" standalone="no"?>
<!DOCTYPE svg PUBLIC "-//W3C//DTD SVG 20010904//EN"
 "http://www.w3.org/TR/2001/REC-SVG-20010904/DTD/svg10.dtd">
<svg version="1.0" xmlns="http://www.w3.org/2000/svg"
viewBox="0 0 348.000000 348.000000"
 preserveAspectRatio="xMidYMid meet">

<g transform="translate(0.000000,348.000000) scale(0.100000,-0.100000)"
fill="#000000" stroke="none">
<path d="M1575 3470 c-472 -53 -874 -266 -1169 -620 -199 -239 -326 -517 -382
-835 -25 -146 -23 -422 4 -576 90 -498 394 -938 826 -1195 436 -260 979 -315
1459 -147 497 172 898 573 1070 1070 188 540 96 1145 -246 1609 -74 102 -288
309 -397 386 -191 136 -462 248 -691 287 -136 24 -362 33 -474 21z m157 -273
c-2 -40 -12 -247 -22 -462 -17 -344 -18 -407 -6 -535 9 -104 10 -147 2 -152
-6 -4 -14 -4 -17 0 -4 4 -18 73 -32 153 -20 118 -52 228 -167 583 -78 241
-140 439 -138 442 3 2 24 7 49 10 41 5 45 4 61 -25 41 -75 155 -55 173 30 6
24 11 28 48 31 23 2 44 2 47 0 2 -2 3 -36 2 -75z m118 48 c0 -35 39 -75 80
-81 39 -7 85 21 100 61 8 21 11 22 54 12 25 -6 46 -14 46 -19 0 -5 -63 -203
-139 -441 -105 -327 -146 -467 -165 -573 -14 -78 -26 -145 -26 -148 0 -3 -7
-6 -16 -6 -15 0 -16 11 -8 103 12 132 10 348 -4 617 -7 118 -15 280 -18 360
l-7 145 52 -3 c46 -4 51 -6 51 -27z m-496 -92 c8 -38 52 -239 96 -448 65 -301
93 -411 134 -527 42 -117 50 -148 39 -152 -10 -4 -33 34 -82 137 -49 103 -134
244 -311 517 -133 206 -244 379 -246 385 -3 6 14 20 37 31 l41 20 28 -28 c40
-39 91 -39 132 2 24 24 29 37 26 67 -3 36 -1 38 37 49 22 7 43 13 47 13 3 1
13 -29 22 -66z m861 47 c21 -8 24 -14 19 -34 -7 -28 18 -81 45 -96 36 -19 81
-12 111 18 l28 28 41 -20 c22 -11 41 -23 41 -27 0 -3 -112 -179 -248 -391
-188 -290 -264 -418 -312 -521 -35 -75 -67 -137 -72 -137 -22 0 -15 36 31 160
41 110 68 219 145 581 53 245 96 449 96 453 0 9 31 3 75 -14z m-1143 -332
c255 -506 327 -638 407 -751 62 -88 81 -121 72 -130 -13 -13 -5 -21 -116 112
-60 73 -189 198 -428 413 -188 171 -343 313 -344 316 -1 4 14 20 32 35 33 27
35 27 64 13 43 -23 75 -20 111 11 31 25 32 30 27 79 -5 51 -4 54 26 73 18 12
37 21 42 21 6 0 54 -87 107 -192z m1489 170 c40 -22 47 -32 29 -43 -5 -3 -10
-22 -10 -41 0 -73 89 -120 148 -78 21 15 25 14 57 -11 19 -14 35 -29 35 -34 0
-4 -153 -146 -341 -315 -246 -223 -367 -340 -436 -422 -52 -63 -99 -114 -103
-114 -27 0 -12 31 63 137 55 77 126 200 207 358 224 437 301 585 307 585 3 0
23 -10 44 -22z m-1594 -564 c216 -240 340 -368 413 -429 134 -111 126 -103
113 -116 -8 -8 -44 11 -135 75 -94 66 -218 135 -528 293 -223 113 -407 208
-410 210 -3 3 5 21 17 41 21 36 22 37 75 34 51 -3 57 -1 81 28 31 36 34 68 11
111 -14 29 -14 31 13 64 15 18 31 33 35 32 3 -1 145 -156 315 -343z m1901 308
c30 -37 30 -37 11 -61 -28 -35 -24 -77 11 -113 27 -27 36 -29 82 -26 49 3 51
2 74 -34 l24 -38 -62 -31 c-470 -236 -778 -402 -878 -472 -63 -44 -121 -80
-129 -81 -35 -3 -11 26 97 116 89 74 190 179 422 437 168 187 308 340 312 340
3 1 20 -16 36 -37z m-2068 -532 c273 -177 414 -262 517 -311 103 -49 141 -72
137 -82 -4 -11 -35 -3 -152 39 -116 41 -226 69 -527 134 -570 122 -516 107
-509 138 16 64 20 68 58 64 29 -3 41 1 66 26 41 41 42 92 2 132 l-28 28 20 41
c11 23 25 40 31 37 6 -2 179 -113 385 -246z m2298 209 l23 -40 -25 -24 c-69
-64 -20 -174 73 -163 21 3 26 -3 39 -40 8 -24 12 -46 9 -49 -4 -3 -210 -49
-459 -103 -356 -77 -480 -108 -581 -145 -71 -27 -134 -44 -144 -41 -24 10 -11
18 127 82 90 42 235 130 515 310 215 139 392 253 395 253 3 1 15 -17 28 -40z
m-2728 -363 c653 -214 765 -248 907 -273 81 -14 151 -28 155 -32 4 -3 4 -11 0
-17 -5 -8 -47 -7 -147 2 -123 12 -191 11 -550 -6 -226 -11 -436 -21 -467 -23
l-58 -3 0 48 c0 46 2 49 29 54 73 15 103 112 49 159 -15 13 -32 25 -39 27 -13
4 -4 98 9 98 4 0 54 -15 112 -34z m2865 2 c4 -18 8 -40 11 -48 2 -10 -7 -20
-26 -27 -80 -30 -62 -168 23 -175 30 -3 41 -25 35 -74 l-3 -29 -75 3 c-83 3
-353 16 -648 32 -177 10 -312 6 -469 -15 -26 -3 -33 0 -33 13 0 15 23 22 138
41 141 24 184 37 717 210 171 55 313 100 317 101 3 0 9 -15 13 -32z m-2745
-377 c554 -32 638 -34 780 -21 136 12 183 9 164 -10 -5 -5 -74 -21 -154 -35
-111 -20 -243 -58 -560 -160 -228 -74 -427 -137 -441 -140 -23 -6 -26 -3 -36
40 -10 44 -9 47 12 55 40 15 68 61 61 100 -6 41 -46 80 -82 80 -22 0 -24 4
-24 50 l0 50 58 0 c31 0 131 -4 222 -9z m2790 -18 c0 -51 -11 -73 -35 -73 -31
0 -64 -29 -74 -66 -12 -42 9 -88 49 -109 21 -11 29 -21 26 -33 -3 -9 -8 -29
-12 -44 -3 -16 -10 -28 -15 -28 -5 0 -85 24 -177 54 -619 201 -703 226 -838
250 -78 15 -145 26 -148 26 -3 0 -6 7 -6 16 0 15 10 16 78 10 196 -16 320 -15
632 2 184 11 377 20 428 21 l92 1 0 -27z m-1823 -89 c2 -5 -58 -39 -133 -73
-103 -48 -231 -125 -521 -312 -212 -137 -389 -249 -392 -249 -4 0 -16 19 -27
41 l-20 41 28 28 c30 30 37 75 18 111 -14 26 -65 50 -97 47 -23 -3 -28 2 -40
40 -9 24 -13 45 -12 47 2 2 207 47 454 100 369 79 473 105 580 145 130 49 155
54 162 34z m726 -33 c107 -39 220 -68 536 -135 506 -109 501 -108 501 -119 0
-5 -5 -27 -12 -48 -9 -32 -15 -38 -30 -33 -10 3 -34 0 -53 -6 -68 -22 -84
-115 -29 -159 l25 -20 -21 -41 c-14 -27 -26 -40 -35 -36 -8 3 -182 114 -387
247 -280 181 -407 258 -508 305 -79 36 -136 69 -138 78 -2 9 1 16 6 16 6 0 71
-22 145 -49z m-686 -38 c2 -6 -48 -53 -110 -106 -83 -69 -199 -190 -423 -436
-169 -188 -311 -341 -315 -341 -5 0 -20 16 -34 35 -25 32 -26 36 -11 57 42 59
-5 148 -78 148 -19 0 -38 -4 -41 -10 -3 -5 -10 -10 -14 -10 -13 0 -54 81 -45
90 5 4 191 101 414 216 312 160 431 226 520 290 112 80 130 89 137 67z m631
-72 c94 -65 220 -135 482 -269 195 -100 378 -194 407 -209 l52 -29 -27 -41
c-21 -32 -31 -40 -42 -33 -28 18 -80 11 -105 -14 -36 -36 -42 -73 -18 -117
l21 -37 -34 -33 c-30 -29 -36 -31 -48 -19 -7 8 -147 163 -310 344 -206 228
-329 356 -404 418 -59 50 -111 94 -116 98 -8 8 -1 30 10 30 2 0 62 -40 132
-89z m-574 8 c-1 -8 -37 -66 -81 -129 -58 -82 -140 -231 -288 -520 -114 -223
-211 -408 -214 -412 -4 -4 -23 3 -42 17 -35 23 -36 26 -31 74 4 46 2 53 -26
81 -36 35 -77 39 -114 11 l-24 -19 -40 34 c-25 21 -35 36 -28 41 6 5 166 149
355 321 248 225 368 342 429 417 79 96 107 119 104 84z m489 -96 c66 -79 190
-199 428 -413 184 -166 338 -306 343 -311 6 -6 -3 -22 -23 -43 l-33 -34 -37
21 c-44 24 -81 18 -117 -18 -25 -25 -32 -77 -14 -105 7 -11 -1 -21 -33 -42
l-41 -27 -29 52 c-15 29 -109 212 -209 407 -134 263 -204 388 -270 483 -77
111 -98 156 -68 145 5 -2 51 -53 103 -115z m-413 53 c0 -7 -21 -68 -46 -137
-36 -97 -68 -224 -144 -577 -54 -249 -100 -455 -103 -459 -3 -3 -25 1 -49 9
-37 13 -43 18 -40 39 5 41 -15 78 -52 95 -42 20 -79 13 -111 -22 l-24 -26 -38
23 c-21 12 -39 23 -41 25 -2 1 112 180 252 398 141 217 256 397 256 399 0 20
122 257 130 252 6 -3 10 -12 10 -19z m311 -119 c43 -94 123 -228 304 -508 136
-210 249 -387 252 -394 3 -9 -11 -22 -37 -35 l-41 -21 -20 25 c-44 55 -137 39
-159 -29 -6 -19 -9 -43 -5 -53 4 -16 -3 -22 -40 -32 -25 -7 -47 -11 -49 -9 -4
4 -71 310 -157 712 -25 117 -58 238 -89 323 -28 75 -50 140 -50 146 0 5 7 8
16 6 9 -2 40 -55 75 -131z m-226 81 c-21 -157 -25 -293 -16 -465 15 -265 30
-565 33 -653 3 -83 -1 -88 -66 -76 -26 5 -32 11 -34 33 -7 85 -145 103 -175
23 -7 -19 -17 -28 -27 -26 -8 3 -30 7 -47 11 -18 4 -33 8 -33 11 0 2 45 145
101 316 175 544 186 580 210 721 19 114 26 137 41 137 13 0 16 -7 13 -32z m85
26 c0 -3 11 -70 26 -148 17 -96 52 -225 110 -406 170 -527 194 -602 194 -610
0 -4 -12 -11 -27 -14 -16 -4 -36 -9 -45 -12 -12 -3 -22 5 -33 26 -21 40 -67
61 -109 49 -37 -10 -66 -43 -66 -74 0 -24 -22 -35 -74 -35 l-29 0 7 148 c3 81
11 244 18 362 14 269 16 474 4 613 -7 95 -7 107 8 107 9 0 16 -3 16 -6z"/>
</g>
</svg>
