<svg viewBox="0 0 95 148" xmlns="http://www.w3.org/2000/svg">
<path d="M64.1146 4.05106C52.8647 11.551 6.11458 63.0511 6.11458 63.0511C6.11458 63.0511 1.7922 67.76 1.11458 71.5511C0.297922 76.12 4.11458 83.0511 4.11458 83.0511C4.11458 83.0511 22.1146 104.551 25.1146 105.551C28.1146 106.551 31.2984 106.21 33.1146 103.551C34.6563 101.294 35.1146 99.0511 33.1146 96.5511C31.1146 94.051 15.6146 78.051 14.1146 76.5511C12.6146 75.0511 14.1146 71.5511 14.1146 71.5511C14.1146 71.5511 68.1146 14.0511 71.1146 13.0511C74.1146 12.0511 74.9716 12.5835 77.1146 13.5511C79.3797 14.5738 81.6146 18.0511 81.6146 18.0511C81.6146 18.0511 82.1146 21.551 81.6146 23.5511C81.1146 25.5511 34.1146 69.5511 33.1146 71.5511C32.1146 73.551 33.1146 76.5511 33.1146 76.5511C33.1146 76.5511 80.1146 122.551 81.6146 124.551C83.1146 126.551 82.2812 129.551 81.6146 130.551C80.9479 131.551 79.1146 132.551 77.6146 133.551C76.1146 134.551 73.1146 135.051 71.1146 134.551C69.1146 134.051 53.6146 117.051 51.6146 115.051C49.6146 113.051 45.8621 112.881 43.6146 115.051C41.628 116.969 41.6146 121.051 42.6146 122.051C43.6146 123.051 56.1146 137.051 63.1146 143.551C70.1146 150.051 81.8954 147.527 88.6146 140.051C94.9015 133.056 96.6146 123.551 90.6146 116.051C84.6146 108.551 47.6146 74.0511 47.6146 74.0511L91.1146 30.5511C98.1146 17.5511 88.1146 8.05109 86.6146 6.55109C85.1146 5.05109 75.3644 -3.44892 64.1146 4.05106Z" stroke="black"/>
<circle cx="37.5" cy="109.5" r="5" stroke="black"/>
</svg>
