<?xml version="1.0" standalone="no"?>
<!DOCTYPE svg PUBLIC "-//W3C//DTD SVG 20010904//EN"
 "http://www.w3.org/TR/2001/REC-SVG-20010904/DTD/svg10.dtd">
<svg version="1.0" xmlns="http://www.w3.org/2000/svg"
 width="273.000000pt" height="286.000000pt" viewBox="0 0 273.000000 286.000000"
 preserveAspectRatio="xMidYMid meet">

<g transform="translate(0.000000,286.000000) scale(0.100000,-0.100000)"
fill="#000000" stroke="none">
<path d="M513 2840 c-45 -18 -58 -56 -60 -175 l-1 -110 -109 -6 c-123 -7 -178
-25 -232 -80 -75 -75 -71 -9 -71 -1010 l0 -895 26 -52 c14 -29 42 -66 62 -82
71 -59 84 -60 658 -60 l522 0 55 -68 c193 -234 491 -331 777 -251 274 76 477
293 534 571 47 227 -16 457 -174 640 l-45 52 -5 531 -5 531 -27 42 c-64 95
-114 119 -273 130 l-110 7 -5 121 c-6 144 -16 164 -84 164 -78 -1 -98 -39 -95
-185 l2 -100 -599 -5 c-330 -3 -603 -2 -608 2 -5 4 -8 50 -7 103 3 115 -10
160 -49 180 -33 17 -45 18 -77 5z m1146 -640 c18 -5 39 -17 47 -27 20 -27 17
-77 -7 -107 l-20 -26 -434 0 -434 0 -20 26 c-21 27 -27 67 -15 99 16 41 51 44
459 45 221 0 405 -4 424 -10z m-550 -446 c64 -45 58 -154 -11 -190 -59 -31
-123 -11 -153 46 -25 49 -19 88 19 126 28 28 41 34 78 34 24 0 54 -7 67 -16z
m417 -18 c24 -24 34 -43 34 -65 0 -66 -52 -121 -115 -121 -77 0 -131 82 -101
153 19 46 51 67 104 67 37 0 50 -6 78 -34z m384 19 c37 -19 50 -43 50 -95 0
-34 -6 -48 -34 -76 -28 -28 -42 -34 -76 -34 -34 0 -48 6 -76 34 -28 28 -34 42
-34 76 0 23 5 50 10 60 24 46 105 63 160 35z m-1210 -382 c92 -54 48 -203 -60
-203 -34 0 -48 6 -76 34 -95 95 20 238 136 169z m407 -3 c58 -35 64 -118 11
-170 -42 -42 -104 -42 -150 -1 -29 26 -33 35 -33 81 0 46 4 55 33 81 39 35 91
39 139 9z m982 -55 c90 -22 175 -70 247 -140 311 -306 179 -828 -241 -951 -85
-25 -230 -23 -315 5 -238 76 -401 291 -401 531 -1 106 12 165 58 259 66 137
224 266 369 300 62 14 213 12 283 -4z m-1373 -339 c72 -72 27 -186 -75 -188
-71 -1 -111 43 -111 120 0 33 6 45 35 71 51 45 104 44 151 -3z m383 19 c16 -8
36 -31 46 -51 14 -31 15 -43 6 -75 -16 -53 -52 -79 -111 -79 -42 0 -52 4 -79
35 -37 42 -40 85 -11 133 31 51 93 66 149 37z"/>
<path d="M1920 1228 c-13 -5 -28 -14 -32 -21 -4 -7 -8 -121 -8 -254 0 -239 0
-242 22 -257 18 -13 54 -16 185 -16 150 0 165 2 183 20 25 25 26 72 2 93 -14
13 -44 17 -137 19 l-120 3 -5 191 c-5 196 -9 216 -48 226 -10 3 -29 1 -42 -4z"/>
</g>
</svg>
