<?xml version="1.0" standalone="no"?>
<!DOCTYPE svg PUBLIC "-//W3C//DTD SVG 20010904//EN"
 "http://www.w3.org/TR/2001/REC-SVG-20010904/DTD/svg10.dtd">
<svg version="1.0" xmlns="http://www.w3.org/2000/svg"
 width="512.000000pt" height="512.000000pt" viewBox="0 0 512.000000 512.000000"
 preserveAspectRatio="xMidYMid meet">

<g transform="translate(0.000000,512.000000) scale(0.100000,-0.100000)"
fill="#000000" stroke="none">
<path d="M2330 5110 c-494 -48 -950 -230 -1350 -538 -195 -150 -448 -432 -594
-662 -63 -99 -186 -351 -230 -471 -49 -134 -102 -340 -128 -499 -31 -195 -31
-565 0 -760 45 -276 116 -498 237 -745 132 -269 269 -460 489 -681 221 -220
412 -357 681 -489 247 -121 469 -192 745 -237 195 -31 565 -31 760 0 276 45
498 116 745 237 269 132 460 269 681 489 220 221 357 412 489 681 88 179 132
296 180 476 63 240 78 371 78 649 0 278 -15 409 -78 649 -48 180 -92 297 -180
476 -132 269 -269 460 -489 681 -221 220 -412 357 -681 489 -246 121 -474 193
-740 235 -147 23 -475 34 -615 20z m554 -435 c449 -70 861 -280 1186 -605 328
-328 535 -736 607 -1195 24 -152 24 -478 0 -630 -72 -459 -279 -867 -607
-1195 -328 -328 -736 -535 -1195 -607 -152 -24 -478 -24 -630 0 -459 72 -867
279 -1195 607 -328 328 -535 736 -607 1195 -24 152 -24 478 0 630 121 771 647
1419 1372 1690 130 49 336 100 455 114 52 6 109 13 125 15 63 9 394 -4 489
-19z"/>
<path d="M1589 3612 c-92 -48 -134 -163 -94 -260 11 -25 137 -158 393 -414
l377 -378 -377 -377 c-256 -257 -382 -390 -393 -415 -23 -58 -19 -118 13 -179
48 -92 163 -134 260 -94 25 11 158 137 415 393 l377 377 378 -377 c256 -256
389 -382 414 -393 58 -23 118 -19 179 13 92 48 134 163 94 260 -11 25 -137
158 -393 415 l-377 377 377 378 c256 256 382 389 393 414 23 58 19 118 -13
179 -48 92 -163 134 -260 94 -25 -11 -158 -137 -414 -393 l-378 -377 -377 377
c-257 256 -390 382 -415 393 -58 23 -118 19 -179 -13z"/>
</g>
</svg>
