<svg viewBox="0 0 1066 531" xmlns="http://www.w3.org/2000/svg">
<path fill-rule="evenodd" clip-rule="evenodd" d="M416.874 260.978C421.096 260.805 424.434 260.668 426.408 260.584C444.008 259.917 529.742 261.117 556.408 262.451C569.608 263.117 602.008 264.717 628.408 265.784C639.309 266.237 648.286 266.648 655.805 267.078C653.781 274.781 652.263 282.69 651.288 290.765C631.218 290.973 605.392 291.749 579.742 292.984C477.342 298.051 458.142 298.051 346.408 292.451C297.875 290.051 252.142 290.051 243.075 292.451C230.808 295.917 217.342 303.784 208.142 312.984C199.075 322.184 185.075 339.917 185.075 342.451C185.075 347.917 209.342 374.584 225.608 386.984C244.408 401.384 272.275 412.317 298.808 415.784C305.475 416.584 370.542 417.117 476.275 417.117C637.342 417.117 643.608 416.984 653.475 414.584C661.654 412.487 668.77 409.877 676.686 405.812C680.781 412.386 685.295 418.673 690.19 424.634C656.793 425.383 600.343 425.392 487.075 425.251C261.075 424.984 259.475 424.851 206.408 417.917C179.342 414.317 140.008 407.784 126.408 404.584C121.742 403.517 117.608 402.717 117.342 403.117C117.075 403.384 117.608 404.851 118.408 406.451C119.475 408.451 120.275 424.451 120.675 456.717C121.475 499.651 121.342 504.584 119.208 508.317C114.942 516.317 114.408 516.451 75.7415 516.851C43.3415 517.117 40.0082 516.984 35.8748 514.717C33.9859 513.706 32.4738 512.897 31.2635 511.765C26.4082 507.224 26.4082 497.492 26.4082 448.717C26.4082 388.051 26.5415 387.384 35.3415 382.184C37.7415 380.717 39.7415 379.384 39.7415 379.117C39.7415 378.851 34.6748 375.251 28.4082 371.251C22.1415 367.117 17.0748 363.251 17.0748 362.451C17.0748 361.384 17.7415 361.384 19.3415 362.451C19.6581 362.64 20.0799 362.891 20.5731 363.183L20.5739 363.183C22.1577 364.122 24.4767 365.497 26.4082 366.717C49.2082 380.317 84.8082 391.651 133.075 400.317C167.342 406.451 184.542 408.984 208.142 411.117C221.208 412.317 221.342 410.851 209.475 401.784C204.542 398.051 193.475 389.117 184.808 381.784C161.208 362.051 137.342 346.584 108.408 332.184C76.5415 316.317 50.4082 312.184 34.2748 320.451C29.6082 322.851 21.3415 332.317 18.6748 338.317L16.4082 343.117L16.0082 335.384C15.4748 326.184 18.8082 313.917 22.8082 309.517C30.9415 300.717 45.0748 298.851 64.1415 303.784C82.0082 308.451 120.142 328.317 148.008 347.384C153.742 351.251 159.608 354.451 160.942 354.451C162.542 354.451 164.675 352.451 166.542 349.384C180.008 326.851 198.942 300.451 208.408 290.984C219.875 279.384 226.942 275.117 241.742 270.584C251.475 267.651 254.275 267.517 381.742 262.451C394.336 261.903 407.68 261.355 416.857 260.979L416.874 260.978ZM784.406 484.265C783.833 510.754 785.038 514.535 790.008 518.317C793.342 520.984 795.075 521.117 830.942 521.117H868.542L872.675 517.251C876.275 514.051 876.942 512.317 877.608 504.984C877.945 501.614 878.112 493.038 878.149 482.044C862.011 486.878 844.916 489.476 827.238 489.476C812.469 489.476 798.122 487.669 784.406 484.265ZM922.303 162.626C918.388 148.799 910.512 132.534 902.942 122.984C899.608 118.85 896.408 116.717 890.142 114.45C877.475 109.784 855.075 99.1172 844.408 92.4505C839.208 89.1172 833.608 86.4505 832.142 86.4505C830.808 86.4505 825.075 87.6505 819.608 89.1172C814.142 90.5838 809.342 91.7838 808.808 91.7838C808.275 91.7838 806.275 88.5838 804.275 84.7172C800.142 76.4505 796.275 72.8505 786.008 67.9172C770.408 60.1838 754.542 61.2505 744.142 70.8505C740.942 73.7838 738.408 77.1172 738.408 78.4505C738.408 79.7838 737.475 81.5172 736.408 82.4505C734.675 83.7838 732.808 82.7172 724.675 75.6505C697.208 51.2505 669.475 30.8505 651.875 21.9172C635.342 13.3838 591.075 6.45053 517.742 1.25051C494.942 -0.482823 434.008 -0.349522 413.075 1.25051C407.789 1.7062 397.581 2.53573 386.965 3.39834C382.051 3.79763 377.049 4.20407 372.408 4.58383C346.542 6.58383 304.142 13.3838 289.608 17.7838C274.275 22.4505 235.342 49.5172 207.742 74.5838C202.275 79.6505 197.208 83.7838 196.675 83.7838C196.142 83.7838 194.808 81.7838 193.742 79.2505C191.342 73.5172 182.008 65.5172 175.875 63.7838C157.475 58.7172 130.808 70.5838 126.942 85.6505C125.475 91.5172 123.075 92.4505 115.342 90.0505C111.475 88.8505 105.742 87.5172 102.275 87.1172C96.8082 86.3172 95.6082 86.7172 88.0082 91.7838C78.5416 97.9172 57.0749 108.45 42.6749 113.784C37.3416 115.784 32.0082 118.317 30.8082 119.517C24.5416 125.784 12.9416 148.317 10.2749 159.384C9.34157 162.851 8.14157 166.851 7.4749 168.051C6.00824 171.117 3.0749 189.517 0.941569 209.251C-1.3251 230.984 0.674903 280.717 5.0749 313.784C6.00824 320.317 6.94157 326.051 7.20824 326.317C9.0749 328.317 9.20824 322.717 7.74157 304.184C2.14157 232.051 7.34157 183.651 24.5416 148.45C34.2749 128.317 36.4082 126.184 50.6749 121.384C66.9416 115.917 79.3416 110.717 92.6749 103.651L93.2476 103.348L93.6903 103.114L93.6904 103.114C97.8488 100.916 100.374 99.5807 103.059 99.0319C107.208 98.1839 111.742 99.2129 123.28 101.832L123.281 101.832L123.281 101.832L124.194 102.039C124.781 102.173 125.385 102.31 126.008 102.45C132.275 103.917 133.208 103.917 136.142 101.517C138.942 99.3838 141.875 98.9838 156.275 98.7172C165.608 98.7172 174.275 97.9172 175.742 97.1172C177.742 96.0505 179.075 96.0505 180.142 96.9838C181.075 97.6505 186.408 98.7172 191.875 99.2505L202.008 100.051L213.075 90.3172C246.675 60.3172 278.408 37.5172 293.208 32.5838C310.408 26.8505 351.742 20.4505 384.408 18.4505C397.608 17.6505 415.742 16.4505 424.808 15.7838C446.275 14.0505 486.542 14.0505 509.075 15.7838C518.942 16.5838 539.475 18.0505 554.542 19.1172C589.475 21.6505 619.742 26.4505 638.408 32.5838C651.342 36.8505 672.408 51.3838 700.808 75.7838C703.036 77.6823 705.084 79.4316 706.971 81.0433L707 81.0677L707.091 81.1452L707.214 81.2507L707.246 81.2774C724.239 95.7916 728.012 99.0139 732.188 99.67C733.38 99.8572 734.604 99.8354 736.179 99.8074C736.814 99.7961 737.505 99.7838 738.275 99.7838C744.008 99.7838 748.142 99.1172 750.008 97.7838C752.542 96.0505 753.208 96.0505 756.675 97.7838C759.742 99.5172 763.342 99.6505 775.742 98.9838C790.275 98.1838 791.342 98.3172 794.808 101.117C798.275 103.917 799.075 104.051 805.475 102.584L806.672 102.325C820.39 99.3549 825.202 98.3132 829.476 99.3946C831.786 99.9787 833.938 101.182 837.253 103.036L837.875 103.384C842.942 106.184 850.675 110.051 855.075 111.784C859.475 113.517 864.542 115.784 866.408 116.717C868.275 117.651 870.275 118.45 870.942 118.45C871.742 118.45 877.075 120.317 883.075 122.584C893.342 126.45 894.142 126.984 899.208 134.85C903.804 141.835 907.526 148.707 910.531 155.751C914.55 157.895 918.476 160.189 922.303 162.626ZM234.942 401.384C218.142 389.651 197.742 371.117 189.075 360.051C185.075 354.851 180.675 350.584 179.475 350.584C178.275 350.451 175.875 352.317 174.275 354.584C171.742 358.184 171.608 359.117 173.075 361.651C179.608 372.184 195.342 386.584 218.942 403.651C231.742 412.851 232.275 413.117 240.008 413.117C245.742 413.117 247.875 412.717 247.475 411.384C247.075 410.584 241.475 406.051 234.942 401.384ZM167.075 78.7172C176.408 78.0505 179.075 76.4505 173.875 74.4505C167.208 71.9172 161.075 72.9838 149.608 78.8505C136.008 85.7838 136.408 90.1838 150.008 83.6505C156.008 80.8505 161.742 79.1172 167.075 78.7172ZM792.142 87.9172C794.142 85.9172 790.142 82.4505 779.875 77.6505C771.742 73.9172 762.008 72.4505 757.342 74.4505C752.675 76.4505 755.208 78.4505 762.408 78.4505C768.942 78.4505 783.342 83.5172 788.142 87.5172C790.008 89.1172 790.808 89.2505 792.142 87.9172ZM350.408 91.2506C403.608 90.0506 448.942 88.8506 451.075 88.5839C453.342 88.1839 466.808 88.3173 481.075 88.5839C608.008 91.3839 679.208 93.2506 694.408 94.0506L712.408 95.1172L689.742 95.7839C619.342 97.9173 376.008 98.1839 278.408 96.1839C212.142 94.8506 224.408 94.0506 350.408 91.2506ZM283.075 107.784C283.475 108.451 284.542 109.117 285.208 109.117C286.008 109.117 286.142 108.451 285.742 107.784C285.342 106.984 284.275 106.451 283.608 106.451C282.808 106.451 282.675 106.984 283.075 107.784ZM301.742 118.45C301.208 118.45 291.742 112.184 290.675 111.117C288.675 109.117 305.608 116.717 327.475 127.517C379.208 153.251 397.742 166.317 396.808 176.184C396.408 179.917 395.608 180.717 389.742 182.717C381.742 185.517 342.142 186.051 319.742 183.651C291.742 180.717 245.075 174.984 240.275 173.784C236.542 172.984 227.075 162.717 218.008 149.651C213.875 143.651 210.408 138.45 210.408 138.051C210.408 137.784 208.008 133.251 205.075 128.317C202.142 123.251 199.742 118.717 199.742 118.184C199.742 115.384 202.408 117.917 207.075 125.384C215.742 139.117 227.742 154.584 235.208 161.917C235.882 162.58 236.465 163.179 236.994 163.722L236.995 163.723L236.997 163.725C238.161 164.921 239.063 165.848 240.097 166.591C243.654 169.148 248.771 169.535 271.488 171.25L271.505 171.251C274.176 171.453 277.091 171.673 280.275 171.917C313.875 174.584 342.542 171.517 348.142 164.85C353.208 158.85 348.275 149.784 334.275 138.984C327.208 133.517 303.342 118.45 301.742 118.45ZM603.742 128.184C562.542 148.717 546.142 158.851 537.742 168.851C532.942 174.584 533.742 178.451 540.408 181.784C552.275 187.784 609.742 185.651 667.742 177.117C672.542 176.451 680.275 175.517 684.808 174.984C694.542 174.051 698.275 171.384 707.742 159.117C714.942 149.784 730.408 123.784 730.408 121.117C730.275 118.584 728.408 120.984 714.408 140.451C703.075 156.317 690.808 169.117 686.808 169.117C685.475 169.117 673.608 170.051 660.408 171.117C630.542 173.517 618.408 173.651 602.675 171.251C589.608 169.251 584.542 166.984 582.142 161.784C580.942 158.984 581.342 157.651 584.542 152.717C590.675 143.517 600.542 135.784 624.142 121.917C631.208 117.784 637.075 114.051 637.075 113.651C637.075 111.917 630.942 114.584 603.742 128.184ZM61.6083 143.784C64.5416 142.984 67.7416 142.05 68.4083 141.784C72.5416 140.184 94.0083 146.184 106.542 152.45C132.942 165.784 158.142 183.25 204.275 220.45C218.808 232.184 233.742 244.184 237.475 246.984C246.542 254.05 243.342 254.584 232.142 247.917C220.008 240.717 200.275 232.05 193.475 230.984C188.142 230.184 187.742 230.317 180.808 237.517C172.942 245.517 168.408 247.25 159.208 245.917C152.542 244.85 143.075 236.45 141.342 229.917C141.314 229.812 141.287 229.709 141.26 229.609C140.929 228.349 140.701 227.48 140.155 226.922C138.94 225.683 136.156 225.983 127.181 226.948C126.676 227.002 126.153 227.059 125.608 227.117C119.475 227.917 116.675 227.65 113.342 225.917C108.675 223.517 102.408 215.917 102.408 212.85C102.408 208.584 98.8083 207.384 91.3416 208.85C82.6749 210.584 74.5416 208.984 67.4749 204.45C60.8083 200.05 59.3416 200.184 55.3416 206.05C49.4749 214.717 46.0083 227.117 43.0749 249.917C40.1416 272.85 39.7416 275.384 38.4083 273.117C36.6749 269.784 34.1416 216.45 35.0749 201.384C36.1416 184.45 38.8083 170.184 42.4083 162.05C46.1416 153.784 54.8083 145.517 61.6083 143.784ZM100.408 185.117C100.275 177.784 99.8749 176.717 95.7416 172.45C83.3416 160.184 62.5416 169.65 64.1416 186.85C65.6083 202.717 84.2749 209.25 95.6083 197.917C100.008 193.384 100.408 192.45 100.408 185.117ZM141.075 207.384C141.075 198.717 137.342 192.984 129.475 189.784C123.875 187.384 122.008 187.384 115.875 189.65C108.275 192.45 105.075 197.384 105.075 206.717C105.075 214.184 105.342 215.117 109.742 219.117C117.875 226.85 127.742 226.85 136.142 219.25C140.675 215.117 141.075 214.184 141.075 207.384ZM176.808 231.517C179.208 225.25 178.142 220.85 172.675 215.117C165.208 207.117 152.808 208.05 146.808 216.984C143.075 222.45 142.942 227.65 146.275 233.25C154.008 246.05 171.742 244.984 176.808 231.517Z" fill="black"/>
<path fill-rule="evenodd" clip-rule="evenodd" d="M926.587 310.349C926.587 363.732 884.327 405.699 833.794 405.699C783.261 405.699 741 363.732 741 310.349C741 256.967 783.261 215 833.794 215C884.327 215 926.587 256.967 926.587 310.349ZM918.053 414.968C895.129 434.17 865.782 445.699 833.794 445.699C760.454 445.699 701 385.101 701 310.349C701 235.598 760.454 175 833.794 175C907.134 175 966.587 235.598 966.587 310.349C966.587 337.939 958.489 363.6 944.582 384.998L1059.51 495.165C1067.49 502.809 1067.88 515.586 1060.39 523.704C1052.9 531.822 1040.36 532.206 1032.39 524.563L918.053 414.968Z" fill="black"/>
</svg>
