<?xml version="1.0" standalone="no"?>
<!DOCTYPE svg PUBLIC "-//W3C//DTD SVG 20010904//EN"
 "http://www.w3.org/TR/2001/REC-SVG-20010904/DTD/svg10.dtd">
<svg version="1.0" xmlns="http://www.w3.org/2000/svg"
 width="543.000000pt" height="193.000000pt" viewBox="0 0 543.000000 193.000000"
 preserveAspectRatio="xMidYMid meet">

<g transform="translate(0.000000,193.000000) scale(0.100000,-0.100000)"
fill="#000000" stroke="none">
<path d="M2945 1904 c-16 -2 -73 -9 -125 -15 -286 -32 -585 -121 -850 -254
-112 -56 -390 -213 -390 -221 0 -2 64 30 143 71 449 234 765 319 1259 341 160
7 426 -3 411 -15 -4 -4 -26 -13 -48 -20 -90 -29 -251 -118 -440 -241 -232
-152 -321 -198 -408 -211 -34 -5 -286 -9 -559 -9 -273 0 -565 -5 -650 -10
-560 -39 -978 -179 -1198 -404 -59 -61 -60 -73 -2 -27 61 48 204 125 313 169
348 138 824 187 1739 179 l435 -4 102 -37 c176 -64 246 -62 693 19 395 72 802
127 1050 144 l115 8 -102 2 c-206 2 -620 -35 -1107 -99 -319 -43 -492 -51
-596 -29 -81 17 -87 22 -54 46 76 54 459 291 539 334 177 94 359 137 531 125
192 -13 358 -58 714 -193 320 -122 410 -151 503 -163 246 -32 269 -38 339 -86
61 -43 89 -93 98 -176 l7 -73 2 70 c3 172 -92 251 -359 295 -145 25 -183 38
-395 138 -370 174 -669 272 -982 323 -104 17 -182 22 -413 24 -157 2 -298 1
-315 -1z"/>
<path d="M4577 1373 c18 -2 50 -2 70 0 21 2 7 4 -32 4 -38 0 -55 -2 -38 -4z"/>
<path d="M4343 1253 c9 -2 23 -2 30 0 6 3 -1 5 -18 5 -16 0 -22 -2 -12 -5z"/>
<path d="M4120 1225 c-597 -105 -1087 -252 -1521 -458 l-115 -55 -30 47 c-16
25 -56 73 -89 106 -225 225 -509 231 -737 16 -145 -136 -233 -319 -254 -526
-4 -35 -10 -68 -14 -74 -12 -20 -333 -61 -483 -61 -190 0 -651 92 -703 141
-43 40 -97 175 -135 334 l-19 80 5 -104 c6 -116 35 -273 66 -356 l20 -54 77
-25 c163 -53 501 -123 642 -133 105 -7 512 41 621 73 13 3 17 25 22 112 11
195 69 339 190 468 81 86 173 138 280 157 123 21 244 -23 347 -124 58 -57 127
-163 151 -231 7 -21 17 -38 21 -38 5 0 61 30 126 66 182 102 552 284 707 348
300 123 641 233 890 286 159 34 120 37 -65 5z"/>
<path d="M1405 1009 c-440 -54 -827 -172 -1090 -332 -65 -40 -64 -45 2 -22 58
20 214 47 603 106 184 27 342 52 350 54 13 4 222 207 210 204 -3 -1 -36 -5
-75 -10z"/>
<path d="M4789 995 c-135 -43 -274 -213 -334 -407 l-18 -56 -101 -6 c-717 -38
-1191 -94 -1801 -212 -217 -42 -297 -63 -289 -76 8 -13 87 -7 589 47 777 84
1046 108 1415 125 124 6 233 12 244 13 14 2 24 22 43 86 48 168 149 318 249
373 163 88 335 1 414 -210 l21 -56 -25 -25 c-24 -23 -26 -24 -32 -5 -3 10 -19
48 -36 83 -64 143 -184 196 -306 135 -85 -42 -151 -133 -187 -258 -24 -82 -18
-262 11 -326 20 -44 73 -114 80 -107 2 2 -5 22 -16 44 -33 70 -43 128 -38 236
8 156 55 257 156 334 44 33 112 50 156 39 84 -21 170 -144 185 -266 8 -61 9
-62 10 -18 1 44 5 51 69 116 65 66 138 184 156 252 4 14 -7 -3 -25 -37 -32
-64 -137 -199 -146 -189 -3 2 -18 44 -34 92 -33 96 -83 180 -132 217 -90 68
-190 90 -278 62z"/>
<path d="M1865 791 c-68 -32 -150 -113 -185 -181 -94 -184 -86 -400 18 -520
l31 -35 -26 65 c-17 42 -27 91 -31 145 -15 248 150 485 338 485 137 0 277
-130 297 -275 10 -73 27 -68 19 6 -14 136 -121 285 -232 323 -76 26 -158 21
-229 -13z"/>
<path d="M1140 753 c-14 -2 -176 -27 -360 -54 -351 -53 -439 -69 -505 -92
l-40 -14 30 -6 c65 -13 442 -30 553 -24 164 8 221 32 344 147 56 52 54 56 -22
43z"/>
</g>
</svg>
