<?xml version="1.0" standalone="no"?>
<!DOCTYPE svg PUBLIC "-//W3C//DTD SVG 20010904//EN"
 "http://www.w3.org/TR/2001/REC-SVG-20010904/DTD/svg10.dtd">
<svg version="1.0" xmlns="http://www.w3.org/2000/svg"
 width="704.000000pt" height="397.000000pt" viewBox="0 0 704.000000 397.000000"
 preserveAspectRatio="xMidYMid meet">

<g transform="translate(0.000000,397.000000) scale(0.100000,-0.100000)"
fill="#000000" stroke="none">
<path d="M3130 3899 c-58 -5 -195 -16 -305 -25 -194 -15 -512 -66 -621 -99
-115 -35 -407 -238 -614 -426 -41 -38 -79 -69 -83 -69 -4 0 -14 15 -22 34 -18
43 -88 103 -134 116 -138 38 -338 -51 -367 -164 -11 -44 -29 -51 -87 -33 -29
9 -72 19 -98 22 -41 6 -50 3 -107 -35 -71 -46 -232 -125 -340 -165 -40 -15
-80 -34 -89 -43 -47 -47 -134 -216 -154 -299 -7 -26 -16 -56 -21 -65 -11 -23
-33 -161 -49 -309 -17 -163 -2 -536 31 -784 7 -49 14 -92 16 -94 14 -15 15 27
4 166 -42 541 -3 904 126 1168 73 151 89 167 196 203 122 41 215 80 315 133
91 48 82 47 250 9 47 -11 54 -11 76 7 21 16 43 19 151 21 70 0 135 6 146 12
15 8 25 8 33 1 7 -5 47 -13 88 -17 l76 -6 83 73 c252 225 490 396 601 433 129
43 439 91 684 106 99 6 235 15 303 20 161 13 463 13 632 0 74 -6 228 -17 341
-25 262 -19 489 -55 629 -101 97 -32 255 -141 468 -324 230 -196 205 -180 281
-180 43 0 74 5 88 15 19 13 24 13 50 0 23 -13 50 -14 143 -9 109 6 117 5 143
-16 26 -21 32 -22 80 -11 171 37 166 37 243 -6 38 -21 96 -50 129 -63 33 -13
71 -30 85 -37 14 -7 29 -13 34 -13 6 0 46 -14 91 -31 77 -29 83 -33 121 -92
75 -114 119 -224 144 -352 6 -33 16 -76 21 -95 28 -105 38 -545 19 -828 -6
-93 -6 -150 0 -160 7 -13 9 -5 10 30 0 26 6 83 14 125 20 110 36 341 36 523 0
150 -20 369 -39 420 -5 14 -14 52 -21 85 -23 111 -91 259 -156 341 -25 31 -49
47 -96 64 -95 35 -263 115 -343 165 -39 25 -81 45 -92 45 -10 0 -53 -9 -94
-20 -41 -11 -77 -20 -81 -20 -4 0 -19 24 -34 53 -31 62 -60 89 -137 126 -117
58 -236 50 -314 -22 -24 -22 -43 -47 -43 -57 0 -10 -7 -23 -15 -30 -13 -10
-27 -2 -88 51 -206 183 -414 336 -546 403 -124 64 -456 116 -1006 155 -171 13
-628 12 -785 0z m-1794 -549 c39 -15 19 -27 -51 -32 -40 -3 -83 -16 -128 -37
-102 -49 -105 -16 -3 36 86 44 132 52 182 33z m4545 -24 c77 -36 107 -62 92
-77 -10 -10 -16 -9 -30 3 -36 30 -144 68 -193 68 -54 0 -73 15 -38 30 35 15
108 4 169 -24z"/>
<path d="M3415 3244 c-16 -2 -356 -11 -755 -20 -945 -21 -1037 -27 -540 -37
732 -15 2557 -13 3085 3 l170 5 -135 8 c-114 6 -648 20 -1600 41 -107 2 -208
3 -225 0z"/>
<path d="M2155 3100 c3 -5 11 -10 16 -10 6 0 7 5 4 10 -3 6 -11 10 -16 10 -6
0 -7 -4 -4 -10z"/>
<path d="M2212 3075 c8 -8 79 -55 83 -55 12 0 191 -113 244 -154 105 -81 142
-149 104 -194 -42 -50 -257 -73 -509 -53 -313 24 -279 17 -338 75 -56 55 -146
171 -211 274 -35 56 -55 75 -55 54 0 -4 18 -38 40 -76 22 -37 40 -71 40 -73 0
-3 26 -42 57 -87 68 -98 139 -175 167 -181 36 -9 386 -52 596 -74 168 -18 465
-14 525 7 44 15 50 21 53 49 7 74 -132 172 -520 365 -164 81 -291 138 -276
123z"/>
<path d="M4560 2947 c-309 -154 -432 -230 -495 -305 -36 -43 -30 -72 20 -97
89 -45 520 -29 955 35 36 5 94 12 128 16 73 7 101 27 172 119 54 70 170 265
170 285 -1 19 -15 1 -120 -145 -85 -119 -177 -215 -207 -215 -10 0 -99 -7
-198 -15 -224 -18 -315 -19 -433 -1 -98 15 -136 32 -154 71 -9 21 -6 31 18 68
46 69 120 127 297 231 53 31 97 59 97 62 0 13 -46 -7 -250 -109z"/>
<path d="M545 2845 c-5 -2 -29 -9 -51 -15 -51 -13 -116 -75 -144 -137 -27 -61
-47 -168 -55 -295 -7 -113 12 -513 25 -538 10 -17 13 2 35 174 22 171 48 264
92 329 30 44 41 45 91 12 53 -34 114 -46 179 -33 56 11 83 2 83 -30 0 -23 47
-80 82 -98 25 -13 46 -15 92 -9 112 12 109 13 118 -21 13 -49 84 -112 134
-120 69 -10 103 3 162 63 52 54 55 55 95 49 51 -8 199 -73 290 -127 84 -50
108 -46 40 7 -28 21 -140 111 -249 199 -346 279 -535 410 -733 510 -94 47
-255 92 -286 80z m205 -230 c31 -32 34 -40 35 -95 0 -55 -3 -62 -36 -96 -85
-85 -225 -36 -236 83 -12 129 144 200 237 108z m253 -130 c59 -24 87 -67 87
-132 0 -51 -3 -58 -37 -89 -63 -57 -137 -57 -198 1 -33 30 -35 37 -35 93 0 70
24 107 81 128 46 17 60 17 102 -1z m324 -190 c41 -43 49 -76 31 -123 -38 -101
-171 -109 -229 -13 -25 42 -24 81 4 122 45 67 138 74 194 14z"/>
<path d="M6420 2834 c-229 -49 -576 -275 -1113 -727 -65 -54 -117 -100 -117
-102 0 -7 53 17 70 31 26 20 173 92 243 119 89 33 111 32 139 -6 57 -76 146
-107 222 -75 36 15 96 82 96 107 0 30 25 41 67 30 107 -30 181 -2 221 84 13
28 25 52 27 53 2 2 29 -2 60 -8 67 -14 125 -3 186 35 21 14 44 25 51 25 21 0
67 -86 89 -168 30 -108 47 -211 55 -325 4 -54 10 -94 14 -90 13 13 30 290 30
481 0 269 -35 409 -122 488 -63 57 -120 69 -218 48z m40 -190 c72 -29 104
-126 63 -195 -19 -31 -85 -69 -122 -69 -36 0 -99 38 -116 70 -37 72 -4 173 65
197 47 16 63 16 110 -3z m-304 -159 c44 -18 71 -49 84 -97 13 -46 -3 -89 -49
-133 -64 -60 -181 -32 -216 52 -8 20 -15 45 -15 57 0 35 43 98 80 117 42 23
69 24 116 4z m-248 -191 c53 -56 41 -135 -28 -182 -74 -50 -175 -4 -187 86 -5
34 -1 49 21 82 45 69 135 75 194 14z"/>
<path d="M3230 1954 c-47 -2 -197 -8 -335 -14 -956 -38 -977 -39 -1050 -61
-111 -34 -164 -66 -250 -153 -71 -71 -213 -269 -314 -438 -14 -23 -30 -38 -42
-38 -10 0 -54 24 -97 53 -209 143 -495 292 -629 327 -143 37 -249 23 -310 -43
-30 -33 -55 -125 -51 -194 l3 -58 17 36 c20 45 82 116 117 134 121 62 317 31
556 -88 217 -108 396 -224 573 -372 65 -55 148 -122 185 -150 89 -68 88 -79
-10 -70 -177 16 -306 35 -563 81 -362 65 -629 150 -800 252 -19 12 -43 26 -53
32 -12 8 -17 8 -17 0 0 -6 38 -35 85 -66 47 -30 85 -57 85 -59 0 -2 -15 -12
-33 -23 -66 -39 -67 -44 -67 -499 0 -457 0 -457 71 -495 31 -17 56 -18 299
-16 290 3 294 4 326 64 16 28 17 65 11 387 -3 242 -9 362 -17 377 -6 12 -10
23 -8 25 2 3 33 -3 68 -11 102 -24 397 -73 600 -100 398 -52 410 -53 2105 -55
1606 -2 1689 0 1960 36 61 9 146 20 189 26 47 6 83 6 88 1 5 -5 5 -141 -2
-336 -12 -355 -9 -390 37 -425 25 -20 38 -21 307 -21 l282 0 31 29 c27 24 32
37 37 92 10 100 0 811 -11 839 -10 24 -7 27 76 72 91 49 201 133 209 158 4 13
2 13 -14 -1 -61 -50 -247 -140 -319 -153 -22 -5 -72 -18 -110 -31 -174 -59
-686 -151 -992 -179 -85 -8 -95 3 -37 44 20 14 80 59 135 100 184 139 226 170
275 202 27 17 72 46 99 63 88 57 321 184 427 234 182 86 297 105 389 64 50
-22 105 -84 124 -141 8 -23 25 -44 44 -55 l31 -19 0 47 c0 25 -4 44 -9 41 -12
-8 -19 12 -27 76 -15 113 -74 173 -179 184 -148 14 -432 -109 -778 -338 -65
-43 -126 -78 -136 -78 -12 0 -31 21 -52 55 -83 136 -195 304 -236 355 -62 77
-147 147 -218 180 -110 50 -175 59 -560 75 -198 8 -441 20 -540 25 -200 10
-843 19 -975 14z m-600 -239 c838 -42 982 -42 1750 -4 374 18 753 23 810 9
114 -27 207 -84 282 -173 60 -70 144 -189 152 -215 6 -17 -12 -42 -93 -130
-92 -100 -183 -185 -237 -222 -156 -107 -244 -151 -361 -181 -74 -18 -121 -19
-1329 -19 -793 0 -1281 4 -1331 10 -199 26 -408 108 -549 216 -122 93 -304
293 -304 334 0 19 105 152 173 221 69 69 170 128 262 154 68 18 411 18 775 0z
m-1180 -507 c65 -83 218 -222 344 -310 49 -35 91 -69 94 -75 3 -10 -13 -13
-56 -13 -58 0 -62 2 -158 71 -177 128 -295 236 -344 315 -11 19 -10 26 9 53
12 17 30 31 39 30 9 0 42 -32 72 -71z m4247 50 c41 -39 31 -61 -75 -166 -102
-101 -267 -232 -333 -263 -47 -23 -129 -26 -129 -4 0 8 10 20 23 26 12 7 42
27 67 46 25 19 68 51 97 72 94 68 228 202 286 285 22 32 34 32 64 4z"/>
<path d="M6931 1294 c0 -11 3 -14 6 -6 3 7 2 16 -1 19 -3 4 -6 -2 -5 -13z"/>
</g>
</svg>
