<?xml version="1.0" standalone="no"?>
<!DOCTYPE svg PUBLIC "-//W3C//DTD SVG 20010904//EN"
 "http://www.w3.org/TR/2001/REC-SVG-20010904/DTD/svg10.dtd">
<svg version="1.0" xmlns="http://www.w3.org/2000/svg"
 width="512.000000pt" height="512.000000pt" viewBox="0 0 512.000000 512.000000"
 preserveAspectRatio="xMidYMid meet">

<g transform="translate(0.000000,512.000000) scale(0.100000,-0.100000)"
fill="#000000" stroke="none">
<path d="M2185 4024 c-226 -29 -353 -58 -460 -108 -88 -41 -161 -105 -188
-166 -19 -42 -21 -63 -19 -363 l2 -318 -23 -8 c-25 -10 -59 -45 -78 -81 -17
-34 -15 -137 5 -184 9 -22 15 -40 14 -41 -2 0 -36 -7 -76 -13 -338 -56 -611
-343 -673 -707 -14 -83 -6 -245 16 -330 56 -210 220 -416 411 -517 142 -74
221 -93 394 -92 128 0 155 4 235 28 294 90 498 296 577 582 17 63 21 108 22
219 1 159 -11 215 -74 350 -121 259 -383 456 -631 474 -51 4 -93 12 -103 20
-54 45 -73 157 -35 205 l21 26 29 -39 c55 -77 190 -160 324 -200 287 -86 707
-74 998 29 l82 28 -35 -30 c-50 -43 -181 -104 -275 -128 -44 -11 -138 -25
-210 -31 -244 -20 -267 -23 -278 -40 -6 -9 -7 -24 -3 -34 6 -17 18 -18 164
-11 86 4 172 9 190 13 l33 5 -3 -103 -3 -104 -75 -12 c-41 -6 -76 -12 -77 -12
-1 -1 -7 -10 -13 -20 -7 -15 -6 -24 6 -36 17 -16 24 -16 132 2 l32 5 0 -121 0
-121 -27 -6 c-55 -11 -73 -23 -73 -48 0 -13 7 -27 15 -30 18 -6 234 36 310 60
119 39 210 100 265 176 l27 37 21 -22 c72 -77 7 -189 -153 -263 -87 -40 -233
-79 -352 -95 -153 -19 -183 -32 -166 -75 5 -15 19 -16 103 -10 l97 7 7 -97 c4
-53 5 -98 3 -100 -5 -5 -134 -21 -229 -29 -42 -4 -84 -12 -93 -19 -26 -19 -10
-55 26 -63 29 -5 29 -6 29 -77 0 -39 3 -88 6 -108 l7 -38 -116 0 c-103 0 -117
-2 -126 -19 -7 -13 -6 -23 2 -35 11 -15 36 -17 207 -17 439 0 727 95 825 272
l30 54 2 315 c1 183 -3 332 -9 355 -11 45 -64 121 -90 130 -15 5 -16 34 -14
304 l2 299 33 27 c17 15 42 46 54 69 21 40 22 50 22 376 l0 335 -30 54 c-76
137 -264 218 -602 257 -157 19 -177 15 -171 -35 3 -25 7 -26 78 -34 363 -36
588 -116 646 -228 30 -59 12 -113 -60 -176 -144 -126 -465 -194 -825 -173
-165 10 -307 43 -428 100 -106 50 -161 93 -184 145 -42 95 28 172 226 249 104
40 199 61 363 80 144 17 154 21 150 55 -3 25 -6 26 -68 27 -36 1 -78 0 -95 -2z
m-495 -597 c64 -37 236 -91 355 -113 118 -21 440 -25 544 -6 36 6 66 10 67 9
1 -1 4 -48 7 -103 l5 -102 -101 -12 c-127 -16 -451 -7 -557 14 -201 42 -322
103 -391 200 -26 35 -29 47 -29 114 l0 76 28 -26 c15 -14 47 -37 72 -51z
m1416 -72 c-4 -16 -17 -43 -31 -60 l-24 -30 -1 97 c0 94 1 97 28 118 l27 22 3
-59 c2 -32 1 -71 -2 -88z m-116 -9 c0 -35 3 -77 6 -94 6 -28 3 -32 -36 -52
-31 -16 -45 -19 -50 -10 -4 6 -8 52 -9 101 l-1 89 32 14 c55 24 58 22 58 -48z
m-150 -55 c0 -38 3 -82 6 -100 7 -34 -5 -42 -80 -56 l-36 -7 0 104 0 105 43
10 c70 17 67 19 67 -56z m-1095 -179 c75 -37 197 -76 295 -93 85 -15 389 -18
523 -6 l87 9 0 -106 c0 -102 -1 -106 -22 -110 -95 -20 -377 -23 -513 -6 -263
32 -465 125 -511 236 -8 18 -14 65 -14 104 l0 70 48 -34 c26 -18 74 -47 107
-64z m1363 9 c-3 -87 -4 -91 -38 -126 l-35 -36 -7 93 -7 93 37 32 c20 18 41
33 45 33 5 0 7 -40 5 -89z m-137 -146 l3 -60 -40 -22 -39 -22 -7 37 c-4 20 -7
69 -7 108 l-1 71 38 15 37 14 6 -40 c4 -23 8 -68 10 -101z m-151 8 c0 -49 3
-97 6 -109 5 -18 -1 -23 -40 -33 -79 -20 -76 -23 -76 93 l0 105 48 14 c26 8
50 15 55 16 4 1 7 -38 7 -86z m176 -390 c-4 -12 -18 -36 -33 -54 l-28 -33 -7
45 c-3 24 -7 64 -7 88 -1 39 3 48 37 76 l37 33 3 -66 c2 -37 1 -76 -2 -89z
m-1357 81 c304 -61 526 -272 602 -573 32 -125 24 -292 -18 -414 -54 -155 -145
-276 -275 -367 -171 -120 -407 -168 -613 -125 -192 40 -404 203 -499 384 -58
110 -80 206 -79 346 1 100 5 135 27 210 68 227 219 404 415 486 79 33 194 61
217 52 17 -6 84 16 84 28 0 6 5 7 12 3 6 -4 64 -18 127 -30z m1224 -120 l4
-92 -44 -22 c-24 -12 -46 -20 -49 -18 -2 3 -7 48 -11 100 l-6 94 49 21 c27 11
50 17 51 14 1 -3 3 -47 6 -97z m-163 -31 c0 -43 3 -87 6 -99 5 -18 -1 -23 -40
-33 -25 -6 -50 -11 -55 -11 -7 0 -11 36 -11 98 l0 98 38 11 c64 18 62 20 62
-64z m295 -249 c-3 -17 -19 -43 -35 -59 l-30 -29 0 109 0 109 33 27 32 27 3
-77 c2 -42 1 -90 -3 -107z m-131 25 c3 -34 6 -83 6 -109 0 -44 -2 -48 -41 -69
-22 -13 -42 -21 -43 -20 -2 2 -6 54 -10 115 l-7 111 38 16 c21 9 41 16 44 16
3 1 9 -27 13 -60z m-151 -120 l4 -107 -37 -11 c-72 -21 -70 -24 -70 107 l0
119 48 9 c31 6 48 6 49 -1 1 -5 4 -58 6 -116z m397 -281 c0 -76 -17 -125 -56
-166 -44 -47 -54 -35 -54 68 0 72 1 76 28 92 15 9 36 26 46 37 29 32 36 26 36
-31z m-170 -110 c0 -29 3 -69 6 -90 6 -33 4 -38 -22 -51 -75 -38 -74 -39 -74
68 l0 96 33 14 c52 23 57 20 57 -37z m-160 -93 l0 -94 -37 -10 c-65 -19 -64
-21 -61 86 l3 98 30 6 c68 15 65 18 65 -86z m314 -220 c-9 -19 -20 -35 -25
-35 -5 0 -9 43 -9 96 0 87 2 97 23 114 l22 18 3 -79 c2 -58 -2 -89 -14 -114z
m-104 48 c0 -38 3 -85 6 -105 6 -35 4 -37 -34 -57 -23 -12 -46 -21 -52 -21 -6
0 -10 40 -10 109 l0 108 38 16 c20 8 40 15 45 16 4 1 7 -29 7 -66z m-146 -109
l6 -111 -32 -6 c-18 -4 -43 -9 -55 -13 -23 -6 -23 -6 -23 103 l0 109 48 16
c26 8 48 14 48 14 1 -1 4 -51 8 -112z m-172 -24 c0 -55 1 -106 2 -112 1 -15
-45 -24 -169 -33 l-90 -7 -3 110 -3 110 78 7 c43 4 98 10 123 15 25 4 48 8 53
9 4 0 8 -44 9 -99z"/>
<path d="M1419 2588 c-153 -14 -294 -81 -404 -192 -104 -106 -175 -254 -175
-368 0 -40 3 -48 18 -48 15 0 23 17 40 88 32 128 74 204 162 293 123 124 261
180 445 180 117 0 190 -17 295 -68 138 -67 259 -217 300 -370 8 -32 16 -43 30
-43 33 0 24 47 -31 159 -42 87 -64 117 -128 180 -147 147 -330 209 -552 189z"/>
<path d="M1436 2408 c-9 -12 -16 -41 -16 -63 0 -36 -4 -42 -32 -54 -46 -20
-116 -88 -139 -134 -28 -54 -27 -127 3 -185 18 -36 47 -64 121 -120 76 -57 97
-78 97 -97 0 -33 -45 -44 -135 -34 -107 14 -102 23 -81 -154 5 -42 19 -50 88
-55 35 -2 68 -8 74 -13 6 -5 11 -27 11 -49 0 -23 4 -44 7 -48 11 -10 142 -9
153 1 4 5 8 34 9 65 l1 56 40 13 c93 31 167 128 167 218 0 78 -31 125 -122
189 -93 65 -127 100 -119 120 8 20 37 20 103 0 97 -31 109 13 16 60 -93 46
-148 41 -177 -15 -35 -67 -10 -107 125 -200 120 -82 141 -127 101 -216 -21
-45 -70 -83 -133 -102 -49 -16 -62 -34 -63 -89 0 -41 -3 -47 -22 -50 -21 -3
-23 1 -23 37 0 61 -25 81 -100 81 -65 0 -64 -1 -75 64 l-6 38 46 -6 c151 -23
238 73 154 169 -18 20 -64 58 -103 85 -82 56 -106 91 -106 150 0 72 47 132
132 169 53 22 68 44 68 95 0 37 10 43 44 30 11 -4 16 -19 16 -45 0 -46 18 -61
102 -83 75 -19 101 -34 94 -53 -3 -8 -9 -32 -12 -53 -5 -32 -3 -40 14 -49 15
-8 22 -7 30 2 16 20 44 115 40 139 -4 29 -52 56 -136 77 l-67 17 -7 47 c-3 25
-9 51 -13 56 -3 6 -39 11 -80 11 -65 0 -76 -3 -89 -22z"/>
<path d="M2127 1843 c-3 -10 -11 -43 -17 -73 -45 -209 -232 -393 -450 -444
-76 -18 -226 -21 -302 -5 -29 6 -91 29 -138 51 -116 56 -204 143 -260 259 -22
45 -40 91 -40 100 0 21 -26 43 -40 34 -18 -11 -11 -53 19 -120 76 -167 200
-282 374 -347 70 -27 99 -32 202 -35 144 -6 222 10 340 67 185 89 327 281 344
463 6 59 5 67 -10 67 -10 0 -20 -8 -22 -17z"/>
<path d="M2339 3834 c-12 -15 -9 -20 21 -45 19 -16 82 -67 139 -115 109 -90
178 -131 205 -121 28 11 17 34 -31 70 -27 19 -102 78 -168 130 -66 53 -127 97
-136 97 -9 0 -23 -7 -30 -16z"/>
<path d="M2102 3808 c-7 -7 -12 -15 -12 -19 0 -4 37 -31 83 -62 45 -30 114
-81 152 -112 39 -31 89 -66 113 -78 38 -19 44 -20 58 -5 14 14 12 19 -30 54
-83 69 -320 234 -336 234 -9 0 -21 -5 -28 -12z"/>
<path d="M2045 3619 c-9 -14 20 -44 87 -90 61 -42 79 -47 97 -26 15 18 0 35
-73 86 -58 40 -98 51 -111 30z"/>
<path d="M3545 3284 c-289 -27 -315 -33 -315 -78 0 -14 5 -26 11 -28 6 -2 57
2 112 10 157 20 554 11 670 -17 122 -28 225 -80 275 -137 56 -63 61 -94 25
-152 -58 -94 -210 -167 -416 -198 -141 -22 -497 -13 -646 15 -111 21 -141 17
-141 -19 0 -26 9 -30 129 -57 164 -35 365 -49 519 -35 71 6 136 14 145 18 15
5 17 -4 17 -94 l0 -101 -57 -8 c-165 -23 -439 -3 -628 48 -95 25 -132 25 -140
-2 -4 -12 -2 -26 3 -31 14 -14 182 -54 332 -79 102 -17 153 -20 280 -16 85 3
165 8 178 12 22 7 22 6 22 -83 l0 -90 -67 -9 c-130 -16 -339 -9 -485 16 -76
13 -145 21 -154 17 -10 -4 -14 -15 -12 -33 3 -27 8 -29 102 -50 192 -42 359
-51 554 -27 l52 7 0 -90 0 -91 -32 -6 c-82 -15 -356 -18 -458 -5 -148 18 -190
18 -204 -3 -17 -28 11 -47 99 -63 252 -49 574 -32 790 40 39 13 71 22 73 20 8
-8 -121 -78 -193 -104 -163 -59 -352 -79 -581 -62 -77 5 -150 7 -162 4 -28 -7
-40 -43 -18 -58 40 -30 402 -43 531 -19 l30 6 -2 -92 c-1 -51 -3 -94 -5 -95
-2 -2 -59 -9 -128 -15 -98 -10 -158 -10 -278 0 -164 13 -186 9 -180 -34 4 -29
46 -35 283 -43 223 -6 324 3 463 43 178 51 309 132 355 218 20 37 22 56 22
191 0 143 1 151 23 168 12 10 34 40 50 65 25 43 28 59 35 202 5 85 9 281 10
435 l2 280 -28 57 c-78 159 -296 239 -682 251 -77 3 -158 3 -180 1z m823 -574
c-5 -65 -19 -100 -39 -100 -5 0 -9 34 -9 75 0 60 3 76 18 84 31 19 35 12 30
-59z m-108 -32 c0 -18 3 -56 6 -84 6 -50 6 -51 -28 -72 -55 -34 -58 -31 -58
66 l0 88 33 17 c45 22 47 21 47 -15z m-140 -118 l0 -89 -54 -15 c-30 -9 -57
-16 -60 -16 -3 0 -6 43 -6 95 l0 94 43 11 c23 6 47 12 52 14 21 7 25 -8 25
-94z m226 -184 c-23 -55 -36 -44 -36 31 0 55 4 71 23 91 l22 24 3 -55 c2 -33
-3 -70 -12 -91z m-92 -17 c-1 -77 -2 -81 -30 -100 -49 -32 -54 -27 -54 61 l0
80 38 19 c20 11 39 20 42 21 3 0 5 -36 4 -81z m-154 -3 c0 -12 3 -50 6 -83 l6
-59 -43 -13 c-24 -7 -52 -15 -61 -17 -16 -5 -18 4 -18 84 l0 88 38 11 c61 17
72 16 72 -11z m268 -165 c-4 -51 -11 -78 -29 -102 l-24 -34 -7 40 c-4 22 -7
58 -7 80 -1 34 4 43 32 63 17 12 34 22 36 22 2 0 1 -31 -1 -69z m-128 -80 c0
-38 3 -76 6 -85 4 -10 -7 -21 -36 -36 -23 -12 -43 -20 -45 -18 -2 2 -4 41 -6
88 l-4 84 35 18 c19 9 38 17 43 18 4 0 7 -31 7 -69z m-140 -81 l0 -89 -37 -10
c-70 -20 -70 -19 -78 70 -4 44 -4 83 0 87 8 9 74 30 98 31 15 1 17 -10 17 -89z
m158 -264 c3 -61 -21 -121 -59 -144 -18 -12 -19 -9 -19 73 0 81 2 87 28 110
15 13 32 23 37 21 6 -1 11 -28 13 -60z m-134 -112 l7 -92 -41 -16 c-22 -9 -43
-16 -45 -16 -3 0 -5 42 -5 94 l0 93 38 15 c20 8 38 14 38 14 1 -1 4 -42 8 -92z
m-144 -49 c0 -105 2 -102 -76 -119 l-31 -7 -7 87 c-4 51 -3 91 2 96 5 5 31 15
58 23 27 7 50 14 52 14 1 1 2 -42 2 -94z"/>
<path d="M3689 3124 c-12 -15 -9 -20 21 -43 19 -14 77 -62 130 -105 151 -126
210 -157 224 -121 6 17 1 22 -85 87 -31 24 -100 78 -152 121 -53 42 -102 77
-110 77 -8 0 -21 -7 -28 -16z"/>
<path d="M3462 3108 c-22 -22 -12 -35 71 -91 45 -30 114 -81 152 -112 80 -64
141 -99 161 -91 27 10 14 33 -48 83 -88 71 -301 222 -313 223 -6 0 -16 -5 -23
-12z"/>
<path d="M3397 2906 c-7 -17 19 -41 95 -91 58 -38 90 -42 96 -13 2 11 -19 34
-65 67 -68 51 -116 65 -126 37z"/>
</g>
</svg>
