<?xml version="1.0" standalone="no"?>
<!DOCTYPE svg PUBLIC "-//W3C//DTD SVG 20010904//EN"
 "http://www.w3.org/TR/2001/REC-SVG-20010904/DTD/svg10.dtd">
<svg version="1.0" xmlns="http://www.w3.org/2000/svg"
 width="512.000000pt" height="512.000000pt" viewBox="0 0 512.000000 512.000000"
 preserveAspectRatio="xMidYMid meet">

<g transform="translate(0.000000,512.000000) scale(0.100000,-0.100000)"
fill="#000000" stroke="none">
<path d="M2265 5108 c-252 -28 -592 -126 -794 -227 l-60 -31 68 -118 c37 -64
155 -268 261 -452 106 -184 194 -337 196 -338 1 -2 39 10 84 27 89 35 248 76
334 86 l56 7 0 529 0 529 -32 -1 c-18 -1 -69 -6 -113 -11z"/>
<path d="M2710 4593 l0 -529 108 -18 c59 -10 159 -35 222 -57 63 -22 122 -42
130 -45 22 -6 542 896 526 913 -15 15 -197 92 -311 131 -173 60 -414 111 -597
127 l-78 7 0 -529z"/>
<path d="M1019 4609 c-163 -121 -387 -345 -508 -508 -53 -72 -88 -128 -83
-133 5 -5 210 -125 457 -267 l447 -259 77 91 c69 82 171 179 243 232 l28 20
-260 449 c-142 247 -263 453 -268 458 -5 5 -59 -29 -133 -83z"/>
<path d="M3956 4678 c-8 -13 -127 -218 -264 -457 l-250 -433 87 -73 c93 -79
131 -117 208 -212 l51 -61 73 42 c518 297 816 471 827 481 10 9 -5 36 -79 136
-118 158 -346 387 -499 500 -145 108 -136 104 -154 77z"/>
<path d="M239 3648 c-42 -84 -111 -263 -142 -373 -45 -156 -97 -452 -97 -550
0 -13 59 -15 528 -15 l528 0 18 108 c10 59 35 159 57 222 22 63 42 122 45 130
3 11 -105 78 -408 253 -227 130 -432 249 -455 262 l-42 26 -32 -63z"/>
<path d="M4392 3447 c-331 -192 -451 -266 -448 -277 3 -8 23 -67 45 -130 22
-63 47 -163 57 -222 l18 -108 528 0 c500 0 528 1 528 18 0 10 -7 74 -15 142
-26 207 -78 419 -152 610 -32 86 -100 231 -106 229 -1 0 -206 -118 -455 -262z"/>
<path d="M2280 3085 c-151 -245 -290 -476 -308 -513 -85 -177 -82 -377 9 -562
83 -169 260 -307 444 -345 146 -31 285 -12 425 56 119 59 230 170 289 289 91
185 94 385 9 562 -34 69 -579 958 -588 958 -3 0 -129 -201 -280 -445z"/>
<path d="M0 2395 c0 -98 52 -394 97 -550 31 -110 100 -289 142 -373 l32 -63
42 26 c23 13 228 132 455 262 303 175 411 242 408 253 -3 8 -23 67 -45 130
-22 63 -47 163 -57 222 l-18 108 -528 0 c-469 0 -528 -2 -528 -15z"/>
<path d="M4046 2302 c-10 -59 -35 -159 -57 -222 -22 -63 -42 -122 -45 -130 -3
-11 63 -54 243 -157 137 -78 341 -196 456 -262 l207 -120 34 67 c67 134 137
340 180 535 22 98 56 328 56 379 0 17 -28 18 -528 18 l-528 0 -18 -108z"/>
<path d="M885 1419 c-247 -142 -452 -262 -457 -267 -13 -13 157 -235 279 -362
171 -179 432 -386 450 -358 4 7 124 213 265 458 l258 445 -28 20 c-72 53 -174
150 -243 232 l-77 91 -447 -259z"/>
<path d="M3753 1636 c-64 -83 -140 -161 -224 -232 l-87 -72 258 -447 c143
-246 263 -452 268 -457 17 -17 252 170 402 321 170 170 339 387 318 406 -7 7
-121 74 -253 150 -132 76 -323 186 -425 245 -102 59 -194 112 -205 118 -17 8
-25 4 -52 -32z"/>
<path d="M1799 942 c-75 -130 -193 -335 -262 -455 l-126 -217 67 -34 c206
-102 504 -188 772 -221 68 -8 132 -15 142 -15 17 0 18 28 18 529 l0 529 -57 7
c-82 10 -267 58 -342 89 -36 14 -67 26 -70 26 -3 0 -67 -107 -142 -238z"/>
<path d="M3148 1169 c-41 -23 -232 -78 -331 -95 l-107 -18 0 -528 c0 -500 1
-528 18 -528 96 0 384 51 547 97 153 43 432 158 429 176 -4 21 -520 907 -529
906 -5 0 -18 -4 -27 -10z"/>
</g>
</svg>
