<svg  viewBox="0 0 1882 1382" xmlns="http://www.w3.org/2000/svg">
<path d="M491.17 0.307249C456.161 2.077 421.203 12.0073 393.127 28.1809L389.292 30.3931L390.669 31.4746C391.456 32.1137 541.469 155.849 723.983 306.475C906.546 457.15 1057.2 581.278 1058.82 582.36C1075.19 593.273 1098.94 595.977 1118.46 589.144C1123.67 587.325 1130.21 583.933 1133.9 581.18C1135.87 579.705 1797.87 33.5885 1801.17 30.7372C1802 29.9998 1787.74 22.5275 1776.04 17.5132C1756.18 9.00854 1735.63 3.89592 1709.52 0.897167C1702.98 0.11061 1656.96 0.0614498 1100.61 0.01229C769.611 -0.0368699 495.349 0.0614498 491.17 0.307249ZM763.074 1034.99C761.936 1034.61 760.668 1034.16 759.266 1033.62C751.341 1030.61 741.292 1025.82 729.247 1019.07C705.188 1005.59 675.735 985.743 643.43 961.152C611.291 936.687 577.034 908.065 543.318 877.326C575.703 850.586 614.912 818.223 662.375 779.048C812.536 655.166 935.654 553.896 935.949 553.995C936.293 554.142 953.551 568.251 974.35 585.408C995.148 602.515 1013.78 617.804 1015.8 619.279C1028.09 628.324 1044.22 635.846 1060.05 639.828C1087.24 646.759 1115.61 645.53 1142.41 636.386C1150.27 633.683 1163.75 627.046 1170.58 622.474C1170.89 622.268 1171.17 622.077 1171.44 621.895C1171.95 621.552 1172.42 621.241 1172.87 620.926C1177.09 618.03 1181.05 614.753 1220.2 582.352L1220.78 581.868C1245.22 561.664 1255.1 553.798 1255.59 554.093C1255.94 554.339 1378.91 655.755 1528.82 779.442C1798.02 1001.55 1801.36 1004.35 1800.33 1005.23C1798.32 1006.9 1776.58 1017.33 1769.55 1020.03C1746.79 1028.63 1723.78 1033.3 1697.91 1034.58C1693.18 1034.81 1539.31 1034.96 1343.02 1035.02C1341 1026.59 1337.81 1019.72 1335.23 1014.19L1334.97 1013.63L1334.97 1013.62C1322.15 986.003 1295.24 960.543 1267.36 939.44C1238.14 917.328 1202.51 896.057 1165.92 877.994C1129.32 859.928 1090.65 844.521 1055.09 834.637C1021.06 825.177 984.491 819.2 954.638 825.161C940.934 827.833 927.675 832.578 913.895 845.486C903.481 855.242 892.999 869.639 880.316 887.498L880.259 887.578L880.203 887.658C873.796 896.774 867.178 906.206 862.743 914.344C860.471 918.512 857.619 924.366 855.913 931.222C854.37 937.425 853.331 946.247 855.956 956.006L838.02 954.886L811.085 992.189L811.012 992.288C791.988 1018.27 782.53 1029.61 776.427 1034.99C771.943 1034.99 767.491 1034.99 763.074 1034.99ZM502.499 838.782C482.78 819.486 463.648 799.727 445.679 779.947L445.677 779.945L445.67 779.937C417.523 748.93 393.669 719.927 376.198 696.01C358.072 671.195 349.964 656.018 348.171 650.549C349.285 649.027 351.04 646.814 353.765 643.721C358.589 638.248 365.274 631.32 374.716 621.871L374.787 621.799L425.402 571.651L422.916 557.279C423.707 557.366 424.512 557.436 425.331 557.488C443.491 558.634 457.88 548.99 463.561 545.129C471.314 539.861 480.023 532.617 489.078 524.867C506.505 510.233 522.425 496.4 531.95 480.831C544.131 460.923 544.044 442.195 542.628 426.364C538.559 377.427 511.964 313.506 480.037 257.199C447.778 200.305 405.571 143.273 364.3 110.103L364.292 110.096L364.284 110.09C353.472 101.409 342.208 93.6652 329.572 88.0783C333.056 82.3902 336.979 76.8376 341.353 71.3924C343.517 68.7377 345.434 66.6239 345.631 66.7222C345.827 66.8205 468.798 168.188 618.91 292.022L891.845 517.174L890.271 518.649C888.148 520.645 662.65 706.741 502.499 838.782ZM1299.16 517.518C1299.11 517.321 1421.88 415.806 1572.04 291.923C1722.2 167.991 1845.17 66.6239 1845.37 66.6239C1845.52 66.6239 1847.34 68.6886 1849.35 71.1466C1866.86 92.9735 1877.04 115.882 1881.02 142.576C1881.85 148.229 1881.9 164.796 1881.9 517.42C1881.9 870.043 1881.85 886.61 1881.02 892.263C1877.97 912.566 1871.38 930.559 1860.66 947.765C1857.22 953.32 1850.78 962.218 1847.09 966.495L1845.37 968.412L1843.01 966.495C1821.72 949.092 1299.21 517.715 1299.16 517.518Z"/>
<path d="M261.869 126.98C241.427 131.971 227.25 139.292 227.25 145.282C227.25 146.946 243.405 165.582 263.187 186.547C316.929 243.118 354.186 299.358 385.178 370.239C400.345 405.18 417.16 457.759 424.743 494.364C431.997 528.64 436.283 528.973 473.21 497.359C510.467 466.078 515.082 458.425 512.775 432.801C506.18 352.602 420.457 201.521 349.241 144.284C320.226 120.99 301.763 117.329 261.869 126.98Z"/>
<path d="M141.856 174.899C111.193 191.205 93.7188 208.177 68.6612 246.113C36.35 294.699 14.5895 348.608 4.69831 405.846C-1.5661 442.118 -1.5661 463.083 4.69831 506.677C22.8321 635.129 79.5415 764.578 175.816 897.023C273.408 1031.8 419.798 1165.57 560.252 1249.1C699.388 1331.63 829.622 1374.56 960.845 1381.55C1041.62 1385.87 1123.39 1359.25 1196.58 1305.01C1240.43 1272.73 1262.2 1246.44 1277.03 1208.83C1287.91 1181.55 1287.58 1180.88 1254.28 1151.26C1177.79 1083.05 1077.56 1033.13 973.703 1011.83C950.294 1007.17 916.994 1002.18 899.519 1001.18L867.538 999.186L853.361 1018.82C815.115 1071.07 804.564 1080.05 781.155 1080.05C725.765 1080.05 549.702 945.941 426.062 809.836C368.364 746.276 326.821 689.371 319.567 664.08C313.632 643.115 318.248 634.796 356.494 596.527L392.432 560.92L388.805 539.955C365.067 405.18 301.104 281.388 211.753 196.863C190.982 177.229 171.529 161.588 168.232 161.588C167.243 161.588 155.374 167.578 141.856 174.899Z"/>
<path d="M972.383 867.406C955.239 870.734 949.634 876.059 922.928 913.662C895.562 952.597 895.892 953.928 941.061 960.916C993.485 968.57 1021.51 975.559 1066.35 990.534C1138.23 1014.83 1215.05 1058.09 1269.12 1104.68C1280.99 1114.99 1293.19 1123.31 1296.48 1123.31C1304.07 1123.31 1307.69 1113.33 1312.64 1078.72C1316.27 1051.43 1316.27 1049.77 1308.68 1033.46C1274.72 960.251 1053.49 851.1 972.383 867.406Z"/>
</svg>
