<?xml version="1.0" standalone="no"?>
<!DOCTYPE svg PUBLIC "-//W3C//DTD SVG 20010904//EN"
 "http://www.w3.org/TR/2001/REC-SVG-20010904/DTD/svg10.dtd">
<svg version="1.0" xmlns="http://www.w3.org/2000/svg"
viewBox="0 0 512.000000 512.000000"
 preserveAspectRatio="xMidYMid meet">

<g transform="translate(0.000000,512.000000) scale(0.100000,-0.100000)"
fill="#000000" stroke="none">
<path d="M430 4224 c-159 -42 -288 -184 -320 -349 -8 -43 -10 -347 -8 -1095
l3 -1035 23 -57 c68 -169 215 -273 400 -285 l82 -6 0 -61 c0 -71 20 -158 51
-218 30 -58 119 -150 177 -181 111 -60 -2 -57 1977 -57 1979 0 1866 -3 1977
57 58 31 147 123 177 181 52 102 51 79 51 1182 0 1118 2 1084 -57 1192 -31 58
-123 147 -181 177 -59 30 -147 51 -214 51 l-58 0 0 55 c0 217 -146 407 -351
454 -29 7 -669 10 -1859 10 -1565 0 -1823 -2 -1870 -15z m3762 -131 c117 -54
188 -161 196 -294 l5 -79 -1695 0 c-1829 0 -1745 2 -1850 -51 -58 -30 -150
-119 -181 -177 -58 -107 -57 -85 -57 -1070 l0 -905 -73 5 c-131 8 -233 75
-286 187 l-26 56 -3 1034 c-3 1143 -5 1096 61 1182 45 59 98 99 159 120 51 18
131 18 1878 16 l1825 -2 47 -22z m519 -524 c111 -52 178 -153 187 -281 l5 -68
-2088 0 -2088 0 5 68 c11 144 97 255 233 298 32 10 413 12 1865 11 l1825 -2
56 -26z m189 -634 l0 -165 -2085 0 -2085 0 0 165 0 165 2085 0 2085 0 0 -165z
m-2 -987 c-3 -696 -3 -703 -25 -750 -30 -66 -96 -133 -162 -165 l-56 -28
-1840 0 -1840 0 -56 28 c-66 32 -132 99 -162 165 -22 47 -22 54 -25 750 l-3
702 2086 0 2086 0 -3 -702z"/>
<path d="M367 3912 c-40 -44 -9 -142 43 -142 54 0 84 105 42 143 -24 22 -65
21 -85 -1z"/>
<path d="M367 3662 c-15 -17 -17 -61 -17 -420 0 -389 1 -403 20 -422 11 -11
29 -20 40 -20 11 0 29 9 40 20 19 19 20 33 20 423 0 379 -1 405 -18 420 -24
22 -65 21 -85 -1z"/>
<path d="M3535 1986 c-61 -19 -96 -40 -139 -83 -122 -120 -122 -325 0 -447 22
-21 64 -51 94 -65 l55 -26 415 0 415 0 52 27 c116 62 178 162 178 288 0 126
-62 226 -178 288 l-52 27 -400 2 c-304 2 -410 -1 -440 -11z m850 -132 c50 -26
96 -97 102 -158 7 -55 -30 -140 -74 -172 -57 -42 -81 -44 -463 -44 l-366 0
-52 26 c-145 72 -144 276 0 348 l53 27 380 -3 c363 -3 382 -4 420 -24z"/>
<path d="M1040 1860 c-11 -11 -20 -29 -20 -40 0 -11 9 -29 20 -40 19 -19 33
-20 483 -20 437 0 465 1 480 18 22 24 21 65 -1 85 -17 15 -65 17 -480 17 -449
0 -463 -1 -482 -20z"/>
<path d="M2195 1866 c-11 -8 -18 -26 -18 -46 0 -45 24 -60 98 -60 74 0 98 15
98 60 0 45 -24 60 -98 60 -36 0 -69 -6 -80 -14z"/>
<path d="M1040 1570 c-11 -11 -20 -29 -20 -40 0 -11 9 -29 20 -40 17 -17 33
-20 103 -20 89 0 98 3 116 38 9 17 9 27 0 45 -18 34 -27 37 -116 37 -70 0 -86
-3 -103 -20z"/>
<path d="M1440 1570 c-11 -11 -20 -29 -20 -40 0 -11 9 -29 20 -40 18 -18 33
-20 170 -20 137 0 152 2 170 20 11 11 20 29 20 40 0 11 -9 29 -20 40 -18 18
-33 20 -170 20 -137 0 -152 -2 -170 -20z"/>
<path d="M1967 1572 c-22 -24 -21 -65 1 -85 16 -15 45 -17 193 -17 196 0 212
5 212 60 0 56 -16 60 -213 60 -159 0 -179 -2 -193 -18z"/>
</g>
</svg>
