<?xml version="1.0" encoding="utf-8"?>
<!-- Svg Vector Icons : http://www.onlinewebfonts.com/icon -->
<!DOCTYPE svg PUBLIC "-//W3C//DTD SVG 1.1//EN" "http://www.w3.org/Graphics/SVG/1.1/DTD/svg11.dtd">
<svg version="1.1" xmlns="http://www.w3.org/2000/svg" xmlns:xlink="http://www.w3.org/1999/xlink" x="0px" y="0px" viewBox="0 0 256 256" enable-background="new 0 0 256 256" xml:space="preserve">
<metadata> Svg Vector Icons : http://www.onlinewebfonts.com/icon </metadata>
<g><g><path fill="#000000" d="M83.8,83.8c0,24.4,19.8,44.2,44.2,44.2c24.4,0,44.3-19.8,44.3-44.3c0-24.4-19.8-44.2-44.3-44.2C103.5,39.5,83.8,59.3,83.8,83.8z"/><path fill="#000000" d="M128,113.3c-40.7,0-73.8,33-73.8,73.8c0,16.3,13.2,29.5,29.5,29.5h88.5c16.3,0,29.5-13.2,29.5-29.5C201.7,146.3,168.7,113.3,128,113.3z"/><path fill="#000000" d="M84.4,118.5c-6.9-3.4-14.6-5.3-22.8-5.3c-28.5,0-51.6,23.1-51.6,51.6c0,12.2,9.9,22.1,22.1,22.1h14.8C46.9,158.2,61.8,132.9,84.4,118.5z"/><path fill="#000000" d="M75.2,125.4c4-3.4,8.3-6.4,12.8-9c-7.3-8.9-11.6-20.3-11.6-32.7c0-8.4,2-16.4,5.6-23.4c-5.8-3.9-12.8-6.1-20.3-6.1c-20.4,0-36.9,16.5-36.9,36.9S41.3,128,61.6,128C66.4,128,71,127.1,75.2,125.4z"/><path fill="#000000" d="M194.4,54.3c-7.5,0-14.5,2.2-20.3,6.1c3.6,7,5.6,15,5.6,23.4c0,12.4-4.4,23.7-11.6,32.7c4.6,2.6,8.9,5.6,12.8,9c4.2,1.7,8.8,2.6,13.6,2.6c20.4,0,36.9-16.5,36.9-36.9S214.7,54.3,194.4,54.3z"/><path fill="#000000" d="M194.4,113.3c-8.2,0-15.9,1.9-22.8,5.3c22.6,14.4,37.6,39.7,37.6,68.4h14.8c12.2,0,22.1-9.9,22.1-22.1C246,136.3,222.9,113.3,194.4,113.3z"/></g></g>
</svg>