<?xml version="1.0" standalone="no"?>
<!DOCTYPE svg PUBLIC "-//W3C//DTD SVG 20010904//EN"
 "http://www.w3.org/TR/2001/REC-SVG-20010904/DTD/svg10.dtd">
<svg version="1.0" xmlns="http://www.w3.org/2000/svg"
 width="512.000000pt" height="512.000000pt" viewBox="0 0 512.000000 512.000000"
 preserveAspectRatio="xMidYMid meet">

<g transform="translate(0.000000,512.000000) scale(0.100000,-0.100000)"
fill="#000000" stroke="none">
<path d="M2490 4790 c-56 -14 -1621 -669 -1664 -697 -123 -80 -156 -171 -186
-503 -17 -180 -14 -575 4 -765 53 -543 196 -1008 432 -1396 65 -108 143 -219
153 -219 3 0 48 42 100 94 l93 94 -67 107 c-252 401 -391 856 -436 1420 -22
281 6 849 46 910 9 14 258 124 786 345 426 178 786 325 801 328 24 4 319 -115
1301 -526 l109 -45 104 104 c57 57 100 106 96 110 -9 8 -100 47 -867 369 -330
138 -625 258 -655 266 -59 15 -97 16 -150 4z"/>
<path d="M1810 4070 c-666 -279 -735 -310 -741 -334 -31 -116 -43 -641 -20
-871 44 -443 159 -841 332 -1148 42 -74 117 -194 136 -217 2 -2 75 67 162 154
155 155 159 159 150 190 -5 17 -9 198 -9 402 0 409 3 431 63 520 17 27 50 62
73 79 l41 30 5 170 c4 150 8 178 30 236 35 95 74 156 137 220 147 147 366 199
566 135 210 -67 365 -255 383 -463 2 -35 8 -63 11 -63 3 0 169 163 369 363
l363 363 -28 13 c-124 57 -1264 531 -1275 530 -7 -1 -344 -140 -748 -309z"/>
<path d="M4080 4033 l-105 -108 108 105 c99 97 112 110 104 110 -1 0 -50 -48
-107 -107z"/>
<path d="M3500 3453 l-375 -378 378 375 c207 206 377 376 377 377 0 7 -32 -24
-380 -374z"/>
<path d="M2465 3526 c-153 -37 -269 -146 -316 -297 -14 -46 -19 -91 -19 -185
l0 -124 408 0 408 0 27 28 c23 24 27 37 27 88 -1 171 -44 286 -141 379 -110
105 -253 145 -394 111z"/>
<path d="M2979 2933 c-13 -16 -12 -17 4 -4 16 13 21 21 13 21 -2 0 -10 -8 -17
-17z"/>
<path d="M2131 2789 c-58 -11 -114 -49 -148 -101 l-28 -42 -3 -360 -3 -361
206 205 205 205 0 48 c0 109 88 197 197 197 48 0 49 0 158 110 l110 110 -325
-1 c-179 -1 -345 -5 -369 -10z"/>
<path d="M2730 2683 l-115 -118 118 115 c64 63 117 116 117 117 0 8 -13 -5
-120 -114z"/>
<path d="M2155 2110 c-115 -115 -208 -210 -205 -210 3 0 100 95 215 210 115
116 208 210 205 210 -3 0 -100 -94 -215 -210z"/>
<path d="M1685 1638 l-160 -163 163 160 c150 148 167 165 159 165 -1 0 -74
-73 -162 -162z"/>
<path d="M1335 1288 l-100 -103 103 100 c95 93 107 105 99 105 -1 0 -47 -46
-102 -102z"/>
</g>
</svg>
