<?xml version="1.0" standalone="no"?>
<!DOCTYPE svg PUBLIC "-//W3C//DTD SVG 20010904//EN"
 "http://www.w3.org/TR/2001/REC-SVG-20010904/DTD/svg10.dtd">
<svg version="1.0" xmlns="http://www.w3.org/2000/svg"
 width="512.000000pt" height="512.000000pt" viewBox="0 0 512.000000 512.000000"
 preserveAspectRatio="xMidYMid meet">

<g transform="translate(0.000000,512.000000) scale(0.100000,-0.100000)"
fill="#000000" stroke="none">
<path d="M723 5056 l-28 -24 0 -312 0 -312 28 -24 c27 -23 34 -24 173 -24 141
0 146 1 169 25 l25 24 0 308 c-1 226 -4 312 -13 324 -25 33 -55 39 -191 39
-128 0 -136 -1 -163 -24z"/>
<path d="M1773 5070 c-12 -5 -26 -18 -32 -29 -7 -13 -11 -128 -11 -326 l0
-306 25 -24 c23 -24 28 -25 170 -25 142 0 147 1 170 25 l25 24 0 311 0 311
-25 24 c-23 24 -29 25 -162 24 -76 0 -148 -4 -160 -9z"/>
<path d="M2805 5068 c-44 -25 -44 -30 -45 -351 l0 -308 25 -24 c23 -24 28 -25
169 -25 139 0 146 1 173 24 l28 24 0 312 0 312 -28 24 c-27 23 -34 24 -165 24
-84 0 -145 -5 -157 -12z"/>
<path d="M3819 5051 l-29 -29 0 -296 c0 -195 4 -303 11 -319 18 -39 50 -47
195 -47 l136 0 29 29 29 29 0 302 0 302 -29 29 -29 29 -142 0 -142 0 -29 -29z"/>
<path d="M194 4689 c-70 -27 -128 -79 -161 -147 l-28 -57 0 -1665 0 -1665 33
-67 c40 -82 119 -157 200 -190 l57 -23 998 0 999 0 19 24 c26 32 25 82 -4 109
l-23 22 -960 0 c-1060 0 -1027 -2 -1093 62 -19 18 -42 51 -52 73 -18 38 -19
102 -19 1323 l0 1282 2280 0 2280 0 0 -640 0 -641 25 -24 c32 -33 78 -33 111
0 l24 24 -2 998 c-3 997 -3 998 -24 1044 -28 60 -93 125 -153 152 -39 18 -69
22 -197 25 l-152 4 -4 -164 c-4 -158 -5 -165 -33 -216 -35 -65 -93 -107 -165
-123 -31 -7 -111 -9 -194 -7 -154 4 -190 15 -250 74 -57 57 -66 92 -66 272 l0
162 -159 0 -158 0 -5 -163 c-4 -160 -5 -165 -35 -218 -22 -40 -44 -62 -83 -86
-64 -39 -118 -47 -288 -41 -146 4 -200 23 -252 86 -47 57 -60 116 -60 279 l0
143 -160 0 -160 0 0 -160 c0 -179 -7 -210 -63 -268 -62 -65 -96 -76 -256 -80
-167 -5 -231 6 -290 48 -22 16 -52 51 -68 77 -27 47 -28 53 -31 216 l-4 167
-159 0 -159 0 0 -151 c0 -172 -9 -212 -58 -269 -66 -77 -92 -85 -297 -85 -205
0 -231 8 -297 85 -49 57 -58 97 -58 269 l0 151 -147 -1 c-122 0 -157 -3 -199
-20z"/>
<path d="M1645 3548 c-44 -24 -45 -29 -45 -313 l0 -272 26 -24 26 -24 290 0
290 0 24 28 24 28 0 265 0 266 -29 29 -29 29 -279 0 c-182 -1 -285 -4 -298
-12z"/>
<path d="M2633 3536 l-28 -24 0 -277 0 -277 28 -24 28 -24 283 0 c271 0 284 1
310 21 l26 20 0 284 0 284 -26 20 c-26 20 -39 21 -310 21 l-283 0 -28 -24z
m497 -301 l0 -165 -185 0 -185 0 0 165 0 165 185 0 185 0 0 -165z"/>
<path d="M3654 3548 c-40 -19 -44 -47 -44 -318 l0 -259 24 -28 24 -28 292 0
292 0 24 28 24 28 0 259 c0 275 -4 299 -47 319 -32 14 -559 14 -589 -1z"/>
<path d="M619 2701 c-24 -19 -24 -20 -27 -282 -3 -281 0 -308 44 -328 17 -7
118 -11 305 -11 l280 0 24 25 25 24 0 274 c0 273 0 274 -23 295 -23 22 -29 22
-314 22 -271 0 -292 -1 -314 -19z"/>
<path d="M1621 2694 c-20 -26 -21 -39 -21 -296 l0 -269 25 -24 24 -25 291 0
291 0 25 25 25 25 -3 274 c-3 253 -4 276 -22 295 -19 20 -27 21 -317 21 l-298
0 -20 -26z m499 -289 l0 -165 -180 0 -180 0 0 165 0 165 180 0 180 0 0 -165z"/>
<path d="M3585 2634 c-185 -33 -404 -127 -550 -236 -89 -67 -205 -183 -273
-273 -67 -89 -164 -281 -196 -388 -57 -185 -73 -429 -41 -613 33 -189 117
-386 233 -547 70 -97 223 -245 320 -310 469 -313 1074 -298 1520 37 259 195
429 467 499 796 25 118 24 382 -1 498 -56 260 -164 466 -342 652 -196 204
-444 337 -718 385 -111 19 -342 18 -451 -1z m285 -364 c19 -19 20 -33 20 -444
0 -327 3 -426 13 -434 6 -5 163 -91 348 -191 186 -100 345 -191 355 -202 27
-30 22 -78 -10 -106 -15 -12 -37 -23 -49 -23 -25 0 -762 400 -792 431 -19 19
-20 35 -23 452 -2 237 0 447 3 465 3 18 15 42 26 53 26 26 83 25 109 -1z"/>
<path d="M629 1877 c-36 -28 -39 -52 -39 -317 l0 -261 25 -24 24 -25 295 0
c291 0 296 0 316 22 19 21 20 34 20 299 l0 278 -26 20 c-26 20 -38 21 -313 21
-209 -1 -290 -4 -302 -13z m489 -309 l-3 -163 -182 -3 -183 -2 0 165 0 165
185 0 185 0 -2 -162z"/>
<path d="M1625 1865 l-25 -24 0 -274 c0 -273 0 -274 23 -295 23 -22 29 -22
319 -22 287 0 295 1 314 21 17 19 19 42 22 282 3 279 0 306 -44 326 -17 7
-118 11 -305 11 l-280 0 -24 -25z"/>
</g>
</svg>
