<?xml version="1.0" standalone="no"?>
<!DOCTYPE svg PUBLIC "-//W3C//DTD SVG 20010904//EN"
 "http://www.w3.org/TR/2001/REC-SVG-20010904/DTD/svg10.dtd">
<svg version="1.0" xmlns="http://www.w3.org/2000/svg"
 width="1280.000000pt" height="640.000000pt" viewBox="0 0 1280.000000 640.000000"
 preserveAspectRatio="xMidYMid meet">

<g transform="translate(0.000000,640.000000) scale(0.100000,-0.100000)"
fill="#000000" stroke="none">
<path d="M5369 4925 c-3 -2 -167 -5 -365 -6 -1044 -5 -2194 -60 -2273 -108 -9
-6 3 -34 43 -100 31 -50 56 -97 56 -103 0 -6 -64 -77 -143 -157 -285 -292
-522 -594 -660 -842 l-37 -66 0 -405 c0 -467 9 -425 -108 -499 -37 -23 -72
-49 -79 -58 -9 -12 -12 -95 -13 -310 l0 -295 154 -155 c156 -158 176 -183 176
-220 0 -12 9 -30 20 -41 19 -19 33 -20 245 -20 237 0 282 7 303 47 5 10 12
124 15 253 6 268 19 342 86 485 125 267 345 448 631 521 110 28 335 26 445 -4
327 -90 572 -334 668 -667 17 -60 21 -111 26 -355 6 -295 10 -318 51 -340 26
-14 4524 -14 4550 0 42 22 45 44 51 345 6 313 9 335 69 479 97 232 315 436
552 514 129 43 222 56 353 49 359 -18 685 -254 815 -589 47 -122 60 -208 60
-403 0 -187 9 -233 48 -254 14 -8 203 -11 598 -11 l577 0 94 93 c94 91 129
139 118 157 -3 6 -23 10 -43 10 -21 0 -48 7 -60 16 -21 14 -22 23 -22 128 0
122 3 128 61 153 43 18 64 95 63 228 0 126 -24 211 -97 348 -146 275 -364 444
-767 595 -438 164 -1206 315 -2077 408 -56 6 -71 13 -160 77 -320 231 -657
435 -1028 622 -378 191 -676 313 -985 402 -296 85 -273 83 -1194 83 -447 0
-815 -2 -817 -5z"/>
<path d="M884 4360 c-55 -22 -71 -99 -30 -147 l24 -28 659 -3 c481 -2 665 1
686 9 51 21 73 81 46 131 -25 47 -35 48 -721 47 -354 0 -653 -4 -664 -9z"/>
<path d="M699 3721 c-38 -38 -40 -91 -4 -126 l24 -25 506 0 506 0 24 25 c25
24 33 73 19 110 -17 43 -36 45 -554 45 l-492 0 -29 -29z"/>
<path d="M257 3030 c-34 -27 -44 -78 -23 -118 8 -16 23 -32 31 -36 9 -3 361
-6 781 -6 l765 0 24 25 c36 35 34 88 -4 126 l-29 29 -760 0 c-750 0 -760 0
-785 -20z"/>
<path d="M3505 2733 c-171 -24 -347 -116 -476 -250 -162 -167 -239 -357 -239
-588 0 -238 87 -444 256 -606 162 -154 325 -225 544 -236 304 -15 580 122 744
371 94 141 133 259 143 426 23 421 -270 796 -685 876 -68 13 -217 17 -287 7z
m308 -318 c89 -31 155 -74 222 -147 99 -106 145 -225 145 -373 0 -148 -46
-267 -145 -373 -109 -118 -237 -175 -395 -176 -253 -1 -453 146 -536 394 -13
39 -19 84 -19 155 0 155 52 281 161 389 84 85 197 141 319 160 58 8 181 -5
248 -29z"/>
<path d="M9988 2730 c-279 -50 -530 -252 -634 -508 -50 -123 -59 -178 -58
-337 0 -136 3 -158 28 -235 52 -158 118 -262 235 -372 336 -318 868 -301 1188
36 261 274 308 682 117 1011 -55 94 -199 242 -286 294 -68 39 -151 74 -234 97
-68 18 -285 27 -356 14z m316 -310 c115 -36 245 -141 308 -250 77 -132 95
-309 46 -448 -33 -93 -74 -156 -146 -224 -110 -105 -222 -151 -372 -152 -199
-1 -371 95 -479 269 -104 164 -100 405 7 571 141 218 390 309 636 234z"/>
</g>
</svg>
