<?xml version="1.0" standalone="no"?>
<!DOCTYPE svg PUBLIC "-//W3C//DTD SVG 20010904//EN"
 "http://www.w3.org/TR/2001/REC-SVG-20010904/DTD/svg10.dtd">
<svg version="1.0" xmlns="http://www.w3.org/2000/svg"
 width="517.000000pt" height="483.000000pt" viewBox="0 0 517.000000 483.000000"
 preserveAspectRatio="xMidYMid meet">

<g transform="translate(0.000000,483.000000) scale(0.100000,-0.100000)"
fill="#000000" stroke="none">
<path d="M1566 4565 c-144 -40 -277 -148 -341 -278 -71 -145 -68 -41 -60
-1808 4 -873 4 -1668 0 -1767 l-7 -180 -112 -4 c-105 -3 -115 -5 -149 -31 -60
-46 -71 -77 -72 -197 l0 -105 1605 0 1605 0 3 82 c3 98 -9 151 -44 193 -40 47
-71 58 -186 65 l-106 8 -7 181 c-9 214 -3 1321 7 1331 8 9 160 -20 195 -37 56
-27 67 -91 83 -481 6 -144 17 -293 26 -339 51 -270 168 -408 369 -436 136 -19
249 13 336 95 129 120 202 330 245 704 13 113 18 272 21 739 5 585 4 596 -16
651 -26 69 -94 172 -174 264 -104 119 -710 735 -743 756 -19 11 -49 19 -77 19
-88 0 -154 -92 -127 -175 9 -27 69 -95 219 -247 l206 -210 5 -257 c6 -285 6
-286 87 -409 46 -69 185 -216 260 -274 l56 -43 -6 -310 c-14 -682 -84 -995
-223 -995 -109 0 -139 93 -154 475 -12 311 -18 385 -41 472 -53 212 -178 306
-456 343 l-92 13 -3 881 c-4 966 0 913 -63 1036 -57 113 -174 215 -300 262
l-60 23 -830 2 c-675 1 -839 -1 -879 -12z m1702 -370 c44 -19 78 -49 100 -90
15 -27 17 -92 20 -602 2 -392 -1 -586 -8 -614 -14 -52 -72 -116 -119 -129 -24
-8 -300 -10 -852 -8 l-816 3 -41 28 c-80 56 -77 29 -80 675 -2 380 1 586 8
612 14 51 54 98 105 121 38 18 86 19 843 19 702 0 807 -2 840 -15z"/>
</g>
</svg>
