<?xml version="1.0" standalone="no"?>
<!DOCTYPE svg PUBLIC "-//W3C//DTD SVG 20010904//EN"
 "http://www.w3.org/TR/2001/REC-SVG-20010904/DTD/svg10.dtd">
<svg version="1.0" xmlns="http://www.w3.org/2000/svg"
 width="481.000000pt" height="519.000000pt" viewBox="0 0 481.000000 519.000000"
 preserveAspectRatio="xMidYMid meet">

<g transform="translate(0.000000,519.000000) scale(0.100000,-0.100000)"
fill="#000000" stroke="none">
<path d="M2262 4604 c-198 -36 -356 -126 -403 -229 -35 -77 -20 -330 31 -520
19 -69 44 -141 120 -345 21 -58 52 -141 67 -185 l29 -80 299 0 299 0 29 80
c15 44 59 163 97 265 38 102 77 212 86 245 53 192 71 462 35 540 -48 106 -205
194 -411 230 -101 18 -179 18 -278 -1z m369 -93 c102 -29 219 -94 219 -122 0
-4 -7 -14 -15 -22 -13 -14 -24 -10 -91 28 -76 43 -164 70 -269 82 -63 7 -78
18 -64 45 10 19 17 20 84 14 39 -4 101 -15 136 -25z m-323 -8 c3 -23 -14 -31
-121 -54 -45 -10 -60 -10 -70 0 -20 20 5 44 64 63 73 23 123 20 127 -9z"/>
<path d="M1704 4246 c-16 -12 -19 -29 -22 -118 -3 -133 5 -152 72 -156 43 -3
48 -1 42 14 -4 10 -10 75 -13 146 l-6 128 -27 0 c-14 0 -35 -6 -46 -14z"/>
<path d="M2125 3163 c26 -68 61 -282 80 -485 l7 -68 193 0 193 0 7 68 c19 203
54 417 80 485 7 16 -11 17 -280 17 -269 0 -287 -1 -280 -17z"/>
<path d="M2212 2063 l3 -488 40 -15 c54 -19 246 -19 300 0 l40 15 3 488 2 487
-195 0 -195 0 2 -487z"/>
<path d="M1865 2217 c-22 -12 -49 -36 -61 -54 -11 -17 -81 -170 -154 -340 -73
-169 -162 -373 -197 -453 -35 -80 -67 -166 -70 -191 -10 -85 34 -165 112 -200
38 -18 87 -19 910 -19 823 0 872 1 910 19 76 34 122 114 113 196 -5 44 -385
933 -423 989 -11 17 -38 41 -60 53 -35 20 -54 23 -162 23 l-123 0 0 -32 c1
-26 8 -37 33 -53 36 -23 58 -72 82 -185 9 -41 27 -122 40 -180 13 -58 36 -159
51 -225 14 -66 33 -145 40 -175 29 -114 10 -186 -60 -229 -32 -20 -47 -21
-441 -21 -394 0 -409 1 -441 21 -49 30 -74 77 -74 138 l0 51 -69 0 c-72 0 -97
13 -85 44 5 13 22 16 90 16 l83 0 10 38 c20 71 20 72 -64 72 -58 0 -77 3 -81
15 -13 32 15 45 97 45 78 0 79 0 85 28 3 15 8 35 10 44 4 15 -5 18 -73 20 -76
3 -78 4 -78 28 0 24 2 25 82 28 l82 3 11 37 c5 20 10 40 10 45 0 4 -33 7 -74
7 -61 0 -75 3 -80 17 -12 29 21 43 101 43 63 0 73 2 73 18 0 9 3 27 6 40 6 21
4 22 -64 22 -72 0 -89 10 -76 45 5 12 24 15 85 15 68 0 79 2 79 18 1 35 40
103 70 120 24 13 30 24 30 50 l0 32 -122 0 c-109 0 -128 -3 -163 -23z"/>
<path d="M2134 2089 c-6 -8 -25 -77 -43 -154 -17 -77 -56 -250 -86 -385 -60
-264 -61 -296 -18 -330 25 -19 38 -20 418 -20 508 0 481 -16 420 262 -19 89
-40 181 -45 203 -20 81 -59 252 -75 330 -10 44 -24 87 -31 95 -12 12 -14 -25
-14 -256 0 -268 0 -271 -23 -292 -37 -35 -95 -53 -186 -59 -120 -8 -218 10
-264 48 l-37 30 -2 271 c-2 202 -6 268 -14 257z"/>
</g>
</svg>
