<?xml version="1.0" standalone="no"?>
<!DOCTYPE svg PUBLIC "-//W3C//DTD SVG 20010904//EN"
 "http://www.w3.org/TR/2001/REC-SVG-20010904/DTD/svg10.dtd">
<svg version="1.0" xmlns="http://www.w3.org/2000/svg"
 width="343.000000pt" height="311.000000pt" viewBox="0 0 343.000000 311.000000"
 preserveAspectRatio="xMidYMid meet">

<g transform="translate(0.000000,311.000000) scale(0.100000,-0.100000)"
fill="#000000" stroke="none">
<path d="M1599 3017 c-47 -24 -1460 -1099 -1494 -1137 -20 -22 -20 -38 -23
-764 -2 -714 -2 -743 17 -806 37 -122 131 -224 251 -273 53 -21 67 -22 448
-25 l392 -3 0 509 c0 512 5 592 37 657 33 65 84 114 151 147 l67 33 250 0
c241 0 252 -1 296 -23 75 -37 125 -87 161 -160 l33 -67 3 -548 3 -548 422 3
422 3 59 28 c119 55 199 146 236 266 19 60 20 94 20 802 l0 740 -37 39 c-54
55 -1439 1109 -1488 1131 -60 27 -169 26 -226 -4z"/>
</g>
</svg>
