<?xml version="1.0" standalone="no"?>
<!DOCTYPE svg PUBLIC "-//W3C//DTD SVG 20010904//EN"
 "http://www.w3.org/TR/2001/REC-SVG-20010904/DTD/svg10.dtd">
<svg version="1.0" xmlns="http://www.w3.org/2000/svg"
 viewBox="0 0 500.000000 500.000000"
 preserveAspectRatio="xMidYMid meet">

<g transform="translate(0.000000,500.000000) scale(0.100000,-0.100000)"
fill="#000000" >
<path d="M2310 4394 c-72 -6 -218 -34 -315 -61 -448 -121 -842 -412 -1101
-813 -77 -119 -178 -334 -204 -435 -5 -16 -17 -61 -28 -100 -47 -165 -56 -249
-56 -490 0 -211 3 -241 27 -358 80 -377 243 -688 501 -955 416 -431 1001 -639
1591 -567 66 8 129 17 140 19 11 3 52 13 90 22 331 77 667 272 917 531 720
749 701 1942 -43 2671 -280 273 -596 437 -989 513 -102 20 -413 33 -530 23z
m296 -670 c104 -44 154 -122 154 -243 0 -175 -112 -291 -280 -291 -111 0 -186
51 -225 154 -21 55 -18 206 6 246 60 104 133 150 240 150 38 0 83 -7 105 -16z
m-68 -726 c87 -44 166 -159 198 -288 29 -121 18 -214 -77 -640 -73 -331 -81
-433 -42 -550 14 -42 23 -56 40 -58 60 -9 157 91 203 209 12 30 23 56 26 58 6
6 114 -68 114 -79 0 -5 -12 -31 -27 -57 -15 -26 -36 -65 -47 -86 -58 -108
-176 -198 -308 -232 -89 -23 -228 -17 -313 15 -80 30 -155 105 -172 173 -17
62 -16 182 2 287 16 97 68 339 110 514 32 133 55 282 55 353 0 61 -3 73 -19
78 -25 8 -108 -21 -149 -52 -18 -13 -36 -23 -40 -21 -4 2 -27 24 -51 50 -34
38 -40 50 -33 65 15 28 180 184 232 220 96 66 215 82 298 41z"/>
</g>
</svg>
