<svg  viewBox="0 0 571 503" fill="none" xmlns="http://www.w3.org/2000/svg">
<path d="M424.6 8.53333C398.333 28.6667 363.933 44 330.733 50.2667C322.333 51.8666 314.2 54.1333 312.6 55.3333C309.133 58.1333 308.067 66.2667 306.867 100.667C305 156.8 312.467 204.533 327.267 231.067C344.333 261.6 379.933 294.8 420.2 317.6C428.333 322.133 436.467 326 438.333 326C445.533 326 477 306.8 499.133 288.933C541.133 255.2 559.8 223.067 567 172.4C569.933 152.133 571 107.467 569.267 81.3333C567.4 53.7333 567.8 54.4 547.533 50.5333C512.333 43.7333 480.067 29.6 452.333 8.66666C445.8 3.73331 440.333 0.666656 438.333 0.666656C436.2 0.666656 431 3.73331 424.6 8.53333ZM449.933 33.2C472.6 48.8 501.933 61.7333 530.2 68.5333C539.267 70.8 547.133 72.9333 547.533 73.4667C549.133 75.0667 548.333 153.2 546.6 166C542.733 193.067 537.8 208.933 528.733 224.133C512.333 251.333 482.333 278.533 445.933 299.2L438.2 303.6L424.2 295.2C376.2 266.267 344.6 230.4 335.667 194.933C329.667 171.067 328.333 156.667 328.333 114.4C328.333 92.2666 328.733 73.8667 329.133 73.4667C329.533 72.9333 337.133 70.9333 345.8 68.8C374.467 61.7333 400.6 50.4 424.333 34.8C431.667 30 438.067 26 438.6 26C439 26 444.2 29.2 449.933 33.2Z"/>
<path d="M25.8001 120.133C21.2668 121.6 17.2668 124.267 12.2001 129.2C0.200086 141.333 1.00009 128 1.00009 310C1.00009 492 0.200086 478.667 12.2001 490.8C24.4668 502.933 3.00008 502 257 502C511 502 489.533 502.933 501.8 490.8C513.267 479.333 513 481.067 513 398.4V327.2L509.667 324C505.8 320 499.8 319.733 495.533 323.2L492.333 325.733L491.667 398.533L491 471.333L486.6 475.6L482.333 480H257H31.6668L27.4001 475.6L23.0001 471.333V310V148.667L27.4001 144.4L31.6668 140L155.133 139.333L278.6 138.667L281.133 135.467C284.6 131.2 284.333 125.2 280.333 121.333L277.133 118L154.733 118.133C49.9334 118.133 31.4001 118.533 25.8001 120.133Z"/>
<path d="M324.333 356C322.2 358 321 360.8 321 363.333C321 365.867 322.2 368.667 324.333 370.667L327.533 374H363.667H399.8L403 370.667C405.133 368.667 406.333 365.867 406.333 363.333C406.333 360.8 405.133 358 403 356L399.8 352.667H363.667H327.533L324.333 356Z"/>
<path d="M475.905 113.462C475.193 113.664 474.252 114.183 473.824 114.587C473.396 114.992 472.912 115.309 472.712 115.309C472.513 115.309 460.167 127.634 445.284 142.729C430.4 157.795 418.055 170.149 417.855 170.149C417.655 170.149 417.484 170.264 417.484 170.437C417.484 170.582 417.171 170.726 416.8 170.726C416.344 170.726 414.633 169.398 411.383 166.512C408.788 164.203 406.65 162.183 406.65 162.038C406.65 161.894 406.507 161.778 406.336 161.778C406.165 161.778 404.825 160.71 403.342 159.412C401.147 157.449 400.377 156.958 399.151 156.641C397.184 156.15 391.595 156.468 390.141 157.131C389.058 157.622 386.919 158.892 386.691 159.181C386.606 159.267 386.093 159.643 385.522 159.989C383.641 161.143 380.362 165.213 379.478 167.493C378.936 168.908 378.822 174.622 379.307 178.086C379.449 179.183 379.563 180.366 379.563 180.713C379.563 181.117 384.268 185.85 394.561 195.866C402.772 203.861 409.672 210.441 409.872 210.499C410.071 210.557 410.47 210.701 410.784 210.845C412.381 211.567 415.089 212 418.112 212C420.792 212 421.562 211.913 422.474 211.423C423.187 211.076 432.396 202.071 446.053 188.39C458.428 176.066 474.908 159.585 482.691 151.792L496.89 137.591L496.976 132.742C497.061 128.124 496.947 126.941 496.178 124.978C494.952 121.919 494.296 120.937 491.815 118.426C489.62 116.175 488.764 115.511 486.483 114.357L483.775 113L480.496 113.029C478.557 113.029 476.675 113.202 475.905 113.462Z"/>
<path d="M324.333 420C322.2 422 321 424.8 321 427.333C321 429.867 322.2 432.667 324.333 434.667L327.533 438H385H442.467L445.667 434.667C447.8 432.667 449 429.867 449 427.333C449 424.8 447.8 422 445.667 420L442.467 416.667H385H327.533L324.333 420Z"/>
<path d="M87.4999 388.5C76.4613 411.965 83.9602 437.936 85.5056 439.741C87.051 441.546 276.694 441.288 277.798 439.741C278.901 438.194 287.953 412.481 277.798 388.5C267.642 364.519 243.704 351 241.5 351C239.296 351 217.054 374.711 183.5 376C149.946 377.289 125.204 351 123 351C120.796 351 98.5385 365.035 87.4999 388.5Z"/>
<path d="M228.66 289.524C229.089 314.941 208.36 336.229 181.928 336.657C155.495 337.085 134.06 316.48 133.632 291.063C133.203 265.647 153.931 244.358 180.364 243.93C206.797 243.502 228.231 264.108 228.66 289.524Z"/>
</svg>
