<?xml version="1.0" standalone="no"?>
<!DOCTYPE svg PUBLIC "-//W3C//DTD SVG 20010904//EN"
 "http://www.w3.org/TR/2001/REC-SVG-20010904/DTD/svg10.dtd">
<svg version="1.0" xmlns="http://www.w3.org/2000/svg"
 width="512.000000pt" height="512.000000pt" viewBox="0 0 512.000000 512.000000"
 preserveAspectRatio="xMidYMid meet">

<g transform="translate(0.000000,512.000000) scale(0.100000,-0.100000)"
fill="#000000" stroke="none">
<path d="M2335 5084 c-379 -57 -691 -205 -943 -448 -211 -203 -345 -413 -432
-675 -75 -226 -102 -440 -82 -658 7 -70 15 -138 18 -149 5 -21 2 -21 -118 -27
-142 -6 -211 -23 -324 -77 -198 -95 -343 -262 -417 -480 l-32 -95 0 -890 c0
-1004 -5 -935 80 -1110 79 -163 195 -279 360 -361 50 -24 126 -53 170 -64 78
-20 111 -20 1945 -20 1834 0 1867 0 1945 20 44 11 121 40 170 64 165 82 281
198 360 361 84 173 79 104 83 1060 2 581 0 871 -8 915 -44 265 -208 486 -443
599 -123 59 -182 72 -355 78 l-153 5 6 27 c47 222 25 536 -57 786 -162 499
-561 900 -1059 1064 -178 59 -264 72 -484 76 -110 2 -213 1 -230 -1z m535
-137 c300 -72 536 -203 750 -417 131 -131 208 -234 285 -382 205 -392 230
-877 66 -1258 -117 -272 -273 -461 -741 -900 -361 -339 -538 -521 -659 -677
-18 -24 -36 -43 -40 -43 -4 0 -41 41 -82 92 -108 134 -326 355 -639 648 -351
329 -471 460 -597 652 -220 335 -285 726 -188 1135 66 278 204 523 410 728 60
61 149 138 198 172 172 121 396 218 592 257 126 24 129 24 340 21 172 -3 215
-7 305 -28z m-1917 -2006 c60 -169 163 -348 298 -516 98 -122 247 -272 561
-567 303 -284 451 -438 600 -624 113 -142 124 -145 196 -52 155 203 301 356
622 657 428 402 589 575 718 776 59 91 136 250 164 337 l23 70 160 -4 c144 -4
169 -7 244 -33 235 -80 416 -289 460 -529 6 -35 11 -191 11 -373 l0 -313 -325
0 -325 0 0 58 c0 66 -19 102 -55 102 -41 0 -55 -25 -55 -96 l0 -64 -308 0
c-336 0 -345 -1 -345 -55 1 -54 9 -55 345 -55 l308 0 0 -165 0 -165 -272 2
-273 3 -3 40 c-4 49 -17 65 -52 65 -35 0 -50 -19 -57 -70 l-6 -40 -203 0
c-196 0 -204 -1 -214 -21 -16 -30 -4 -68 26 -79 14 -6 108 -10 210 -10 l184 0
0 -540 0 -540 -1140 0 -1140 0 0 435 0 435 309 0 c268 0 312 2 325 16 20 19
20 44 2 70 -14 18 -31 19 -325 22 l-311 3 0 137 c0 150 -10 182 -55 182 -49 0
-55 -19 -55 -176 l0 -144 -135 0 -135 0 0 215 0 215 248 0 c208 0 251 2 270
16 26 18 28 50 5 76 -15 17 -37 18 -269 18 l-253 0 -3 231 c-3 215 -4 232 -22
245 -26 18 -51 18 -70 -2 -14 -13 -16 -50 -16 -245 l0 -229 -356 0 -355 0 3
403 3 402 28 80 c105 297 355 473 672 474 l110 1 28 -79z m4057 -1446 l0 -165
-325 0 -325 0 0 165 0 165 325 0 325 0 0 -165z m-4190 -160 l0 -215 -355 0
-355 0 0 215 0 215 355 0 355 0 0 -215z m3430 -655 l0 -540 -275 0 -275 0 0
540 0 540 275 0 275 0 0 -540z m758 278 c-4 -257 -4 -265 -32 -343 -41 -120
-80 -181 -176 -276 -70 -70 -103 -95 -171 -128 -83 -40 -188 -71 -241 -71
l-28 0 0 540 0 540 326 0 326 0 -4 -262z m-4190 -385 l2 -433 -58 0 c-155 0
-314 72 -443 200 -95 94 -134 156 -175 275 -24 70 -28 99 -32 238 l-4 157 353
-2 354 -3 3 -432z m382 2 l0 -435 -135 0 -135 0 0 435 0 435 135 0 135 0 0
-435z"/>
<path d="M2354 4460 c-634 -114 -1016 -770 -800 -1375 124 -346 416 -596 785
-670 115 -24 342 -16 456 15 102 27 248 96 334 157 200 142 344 350 408 589
23 87 26 118 26 259 0 140 -3 172 -25 255 -101 375 -371 644 -753 752 -80 22
-344 33 -431 18z m365 -115 c496 -104 824 -598 722 -1090 -97 -472 -523 -789
-999 -744 -327 31 -608 229 -752 530 -66 139 -83 220 -83 394 0 174 17 255 83
393 51 108 89 161 174 251 123 128 268 212 441 257 110 28 303 33 414 9z"/>
<path d="M4502 4851 c-161 -60 -260 -210 -250 -381 16 -271 301 -437 546 -318
65 31 143 111 177 183 26 53 29 71 30 155 0 86 -3 101 -31 160 -37 79 -108
151 -183 187 -76 36 -210 43 -289 14z m243 -115 c92 -43 146 -124 153 -231 4
-64 1 -75 -30 -135 -72 -139 -231 -188 -369 -114 -196 107 -183 391 21 483 64
29 159 28 225 -3z"/>
<path d="M393 4586 c-186 -59 -279 -266 -198 -444 91 -202 348 -255 514 -106
143 129 143 350 -2 480 -84 76 -207 103 -314 70z m215 -129 c128 -84 130 -273
4 -361 -59 -42 -150 -48 -217 -16 -82 40 -134 138 -120 227 9 60 60 132 115
160 64 33 160 29 218 -10z"/>
</g>
</svg>
