<?xml version="1.0" standalone="no"?>
<!DOCTYPE svg PUBLIC "-//W3C//DTD SVG 20010904//EN"
 "http://www.w3.org/TR/2001/REC-SVG-20010904/DTD/svg10.dtd">
<svg version="1.0" xmlns="http://www.w3.org/2000/svg"
 width="1024.000000pt" height="1024.000000pt" viewBox="0 0 1024.000000 1024.000000"
 preserveAspectRatio="xMidYMid meet">

<g transform="translate(0.000000,1024.000000) scale(0.100000,-0.100000)"
fill="#000000" stroke="none">
<path d="M6592 8845 c-16 -55 -49 -162 -71 -238 -46 -153 -85 -238 -128 -279
-47 -44 -146 -84 -373 -148 -118 -33 -222 -63 -230 -66 -8 -3 30 -19 85 -36
55 -16 161 -47 235 -69 179 -53 241 -82 290 -136 59 -63 67 -85 200 -533 l23
-75 71 241 c40 133 85 267 101 299 57 111 113 140 462 241 112 32 200 61 195
65 -4 3 -105 34 -224 68 -329 92 -376 118 -433 235 -19 39 -64 170 -100 291
-36 121 -67 225 -69 230 -2 6 -17 -35 -34 -90z"/>
<path d="M4726 8093 c-134 -457 -170 -547 -251 -628 -81 -82 -178 -119 -657
-256 -142 -40 -252 -76 -245 -80 6 -4 127 -39 267 -79 471 -134 559 -169 645
-261 78 -83 110 -167 266 -701 29 -98 55 -178 59 -178 4 0 10 10 13 23 7 36
164 558 188 628 49 142 117 242 202 296 67 43 178 81 499 173 346 100 343 99
337 105 -3 2 -146 45 -319 95 -337 97 -391 115 -473 156 -165 83 -200 149
-348 653 -49 168 -93 309 -98 314 -4 4 -42 -113 -85 -260z"/>
<path d="M2548 7658 c-626 -621 -999 -1395 -1099 -2288 -20 -171 -17 -592 5
-770 88 -728 357 -1371 811 -1936 109 -137 356 -386 501 -508 565 -473 1226
-760 1984 -863 194 -26 726 -26 920 0 1066 144 1957 660 2588 1499 210 280
406 647 525 986 20 56 34 102 31 102 -2 0 -33 -24 -67 -53 -207 -176 -471
-349 -727 -477 -1092 -547 -2365 -543 -3450 13 -1094 561 -1843 1616 -2005
2827 -67 501 -34 988 100 1474 19 71 33 131 31 133 -2 2 -69 -60 -148 -139z"/>
<path d="M6976 6297 c-102 -357 -130 -407 -257 -466 -35 -17 -165 -60 -288
-96 -123 -35 -226 -67 -228 -69 -3 -2 4 -7 14 -10 10 -3 113 -33 228 -66 116
-34 239 -74 274 -91 127 -59 155 -109 257 -466 33 -114 62 -197 66 -189 4 7
35 107 69 222 95 323 125 376 246 432 37 17 163 58 278 92 116 33 218 63 228
66 10 3 17 8 14 10 -2 2 -96 31 -208 63 -310 90 -372 117 -423 184 -41 53 -71
132 -136 353 -34 114 -64 214 -68 221 -4 7 -33 -78 -66 -190z"/>
<path d="M3800 5805 c-130 -40 -208 -186 -166 -312 77 -231 412 -231 481 1 19
63 19 80 -1 147 -21 72 -91 141 -165 163 -63 19 -89 19 -149 1z"/>
<path d="M4930 4307 c-93 -62 -97 -194 -8 -260 62 -46 174 -28 220 36 30 41
35 121 11 167 -40 78 -151 106 -223 57z"/>
</g>
</svg>
