<svg viewBox="0 0 518 431" xmlns="http://www.w3.org/2000/svg">
<path d="M244.866 9.73364C238.733 15.067 222.733 28.9336 209.266 40.4003L185 61.3336H121.933C69.2665 61.3336 57.6665 61.7336 51.9331 63.3336C42.7331 66.1336 31.6665 76.267 27.6665 85.6003L24.5998 92.667L24.4665 237.334L24.3331 382L14.3331 382.4C8.86646 382.667 3.66646 383.467 2.73312 384.267C0.866458 385.734 0.199791 407.467 2.06646 410.134C2.59979 411.067 11.9331 416 22.8665 421.2L42.7331 430.667H259.266H475.933L496.466 420.8L517.133 410.8L516.733 397.067L516.333 383.334L505.666 382.667L495 382L494.333 236L493.666 90.0003L489.666 82.8003C484.733 74.0003 477.4 67.467 468.066 64.0003C461.266 61.467 457.666 61.3336 396.333 61.3336H331.933L327.4 57.7336C319.4 50.9336 275.133 12.9336 267.933 6.4003C263.933 2.93364 259.666 0.00030306 258.333 0.00030306C257.133 0.00030306 251 4.4003 244.866 9.73364ZM308.333 50.267C377.933 109.867 396.2 125.867 395.933 126.934C395.533 128.667 120.333 128.8 120.333 127.2C120.333 126.4 131.4 116.267 145 104.534C158.6 92.8003 182.333 72.4003 197.666 59.2003C213.133 45.867 232.6 28.9336 241 21.6003C249.4 14.267 257 8.13364 257.666 8.13364C258.466 8.0003 281.266 27.067 308.333 50.267ZM173.4 69.067C173.8 69.6003 169 74.4003 162.733 79.7336L151.4 89.3336H101.933C74.5998 89.3336 51.5331 89.867 50.5998 90.4003C49.2665 91.3336 48.9998 119.867 49.2665 228.8L49.6665 366L258.2 366.4C411.266 366.534 467.133 366.267 468.466 365.2C471 363.067 471.266 93.467 468.733 90.9336C467.533 89.7336 454.066 89.3336 416.2 89.3336H365.266L353.933 79.7336C347.666 74.4003 342.866 69.6003 343.266 69.067C343.533 68.4003 369.8 68.0003 401.533 68.0003C465.533 68.0003 466.6 68.1336 476.6 76.667C479.666 79.2003 483.266 84.1336 484.866 87.867L487.666 94.5336L487.4 237.6L487 380.667L259.4 381.067L31.6665 381.334V237.067C31.6665 99.867 31.7998 92.4003 34.1998 87.3336C37.1331 80.9336 47.1331 71.6003 53.2665 69.7336C58.3331 68.0003 172.466 67.467 173.4 69.067ZM139.4 98.5336C139.266 99.2003 131.666 106 122.6 113.867C108.2 126.267 105.666 128 101.266 128C93.1331 128 92.3331 129.2 92.3331 141.6C92.3331 159.334 98.0665 166.4 113.4 167.6L122.066 168.4L122.733 174.267C123.133 178.267 124.466 181.467 126.866 183.867L130.333 187.467L130.066 244.134L129.666 300.667L124.466 301.067C118.6 301.6 112.6 305.2 110.066 309.734C109.133 311.334 108.066 316 107.666 320L107 327.334L101 327.734C91.9331 328.4 91.2665 329.467 91.9331 342.667C92.3331 348.934 93.1331 355.067 93.6665 356.267C94.5998 358.534 93.2665 358.667 75.7998 358.667H56.9998V228V97.3336H98.4665C121.8 97.3336 139.666 97.867 139.4 98.5336ZM461.666 228V358L441.8 358.4L422.066 358.8L423 355.734C424.733 350.134 425.266 333.734 423.8 330.934C422.733 328.8 420.733 328 415.933 327.734L409.666 327.334L409 320C408.6 316 407.533 311.334 406.6 309.6C404.333 305.6 397.266 301.334 392.866 301.334C386.066 301.334 386.066 301.467 386.466 242.4L386.866 187.334L390.6 182.934C393.266 179.734 394.333 177.2 394.333 173.334V168H401.4C409.8 168 416.466 164.8 420.733 158.667C423.266 154.934 423.666 152.534 423.666 142C423.666 128.4 423.4 128 415 128C411.266 128 407.933 125.734 394.733 114.534C386.066 107.067 378.466 100.134 377.933 99.2003C377 97.6003 383.4 97.3336 419.266 97.6003L461.666 98.0003V228ZM416.066 138C417.8 142.267 415.4 153.2 412.066 156.267L408.733 159.334H258.333H107.933L104.6 156.267C102.2 154 101 151.067 100.333 145.867C99.9331 142 99.7998 138.134 100.333 137.334C100.866 136.4 153.133 136 258.333 136C395.266 136 415.533 136.267 416.066 138ZM178.066 172.667C178.866 179.2 176.2 180 154.6 180C143.933 180 134.333 179.334 132.866 178.667C130.333 177.2 129.266 170.8 131.266 168.8C131.8 168.4 142.466 168.134 154.866 168.267L177.666 168.667L178.066 172.667ZM226.333 173.334C226.333 177.2 227.266 179.734 230.333 183.067L234.333 187.6L234.2 242.134C234.066 272.134 233.666 297.734 233.4 298.934C233 300.667 231.533 301.334 228.6 301.334C223.533 301.334 216.466 305.334 214.066 309.6C213.133 311.334 212.066 316 211.666 320C211 326.934 210.733 327.334 207.133 327.734C202.466 328.267 201 326.4 201 319.6C201 310 194.6 302.667 184.866 300.8L180.066 300L179.266 272.934C178.733 258.134 178.333 232.934 178.333 216.8V187.734L182.333 183.067C185.4 179.734 186.333 177.2 186.333 173.334V168H206.333H226.333V173.334ZM281.533 170.134C283 174 282.333 177.2 279.8 178.667C278.333 179.334 268.6 180 257.8 180C236.466 180 234.333 179.2 234.333 171.867V168H257.533C277.4 168 280.866 168.267 281.533 170.134ZM330.333 173.334C330.333 177.2 331.266 179.734 334.2 183.067L338.066 187.467L338.2 242.8C338.333 286.134 338.066 298.534 336.733 299.6C335.8 300.4 332.6 301.334 329.666 301.734C321.266 303.067 316.733 308.534 315.8 318.934L315 327.334H310.333H305.666L305 320C304.6 316 303.533 311.334 302.6 309.6C300.466 305.867 293.4 301.334 289.4 301.334C281.933 301.334 282.333 304.534 282.333 243.6V187.467L285.8 183.867C288.2 181.334 289.533 178.267 289.933 174.134L290.733 168H310.466H330.333V173.334ZM385.533 170.134C388.6 178.134 385.666 179.334 363.266 179.734C340.866 180.267 338.333 179.467 338.333 172.667V168H361.533C381.4 168 384.866 168.267 385.533 170.134ZM170.866 189.6C170.866 190.934 170.733 216.667 170.6 246.667L170.333 301.467L154.066 301.067L137.666 300.667L137.266 245.334C137.133 214.934 137.266 189.2 137.666 188.267C138.066 187.067 142.333 186.667 154.6 186.934C169.266 187.334 171 187.6 170.866 189.6ZM274.866 190.934C274.866 193.067 274.733 218.667 274.6 248L274.333 301.467L258.066 301.067L241.666 300.667L241.266 245.334C241.133 214.934 241.266 189.2 241.666 188.267C242.066 187.067 246.333 186.667 258.6 186.934L275 187.334L274.866 190.934ZM378.866 190.267C378.866 192 378.733 217.6 378.6 247.334L378.333 301.334H361.666H345V244V186.534L362.066 186.934C378.6 187.334 379 187.334 378.866 190.267ZM190.333 312C193 314.667 193.8 320.4 192.2 324.534C191.533 326.4 186.866 326.667 154.333 326.667C121.8 326.667 117.133 326.4 116.466 324.534C114.866 320.4 115.666 315.467 118.6 312.4C121.4 309.334 121.666 309.334 154.6 309.334C185.933 309.334 187.8 309.467 190.333 312ZM293.933 312.267C296.866 315.067 297.933 320.134 296.2 324.534C295.533 326.4 290.866 326.667 258.333 326.667C225.8 326.667 221.133 326.4 220.466 324.534C218.866 320.4 219.666 315.067 222.333 312.267C225 309.467 225.933 309.334 257.933 309.334C289.933 309.334 290.866 309.467 293.933 312.267ZM398.733 313.6C400.733 316.267 401.133 318.267 400.466 321.867L399.533 326.667H362.466C329.8 326.667 325.133 326.4 324.466 324.534C322.866 320.4 323.666 314.667 326.333 312C328.866 309.467 330.466 309.334 362.6 309.6L396.066 310L398.733 313.6ZM416.2 337.2C416.6 337.734 416.6 341.467 416.066 345.467C415.4 350.534 414.333 353.334 411.933 355.6L408.6 358.667H258.066H107.533L104.466 355.6C101.4 352.534 98.5998 340.134 100.333 337.334C101.4 335.6 415.266 335.467 416.2 337.2ZM509.666 390.8C510.2 391.6 510.2 395.334 509.666 399.334L508.866 406.4L491.533 414.534L474.333 422.667L257.933 422.4L41.6665 422L25.6665 413.867L9.66646 405.867L8.59979 399.467C7.93312 395.067 8.06646 392.534 9.13312 391.2C10.4665 389.6 47.7998 389.334 259.8 389.334C436.066 389.334 509.133 389.734 509.666 390.8Z"/>
<path d="M246.066 46.1337C237.666 48.667 227.8 58.5337 224.6 67.467C216.6 90.1337 230.333 112.667 254.333 116C265.4 117.6 273.933 114.934 281.933 107.6C302.066 89.067 297.533 57.867 273 46.8004C265.933 43.6004 255.266 43.3337 246.066 46.1337ZM271.8 53.7337C292.866 64.9337 292.733 95.7337 271.666 106.267C264.6 109.867 253.933 110.267 246.6 107.2C223.133 97.467 223.4 62.8004 247 52.5337C253.533 49.6004 265 50.267 271.8 53.7337Z"/>
<path d="M194.866 404.667C194.333 405.734 194.333 407.6 194.866 408.667C195.533 410.4 203.933 410.667 259.533 410.667H323.533L324.333 407.867C325 406 324.6 404.534 323.533 403.867C322.466 403.2 293.266 402.667 258.6 402.667C203.8 402.667 195.533 402.934 194.866 404.667Z"/>
</svg>
