<?xml version="1.0" standalone="no"?>
<!DOCTYPE svg PUBLIC "-//W3C//DTD SVG 20010904//EN"
 "http://www.w3.org/TR/2001/REC-SVG-20010904/DTD/svg10.dtd">
<svg version="1.0" xmlns="http://www.w3.org/2000/svg"
 width="512.000000pt" height="512.000000pt" viewBox="0 0 512.000000 512.000000"
 preserveAspectRatio="xMidYMid meet">

<g transform="translate(0.000000,512.000000) scale(0.100000,-0.100000)"
fill="#000000" stroke="none">
<path d="M646 4945 c-49 -17 -103 -68 -127 -120 -18 -39 -19 -119 -19 -2265 0
-2131 1 -2227 19 -2265 23 -51 89 -111 138 -124 26 -7 432 -11 1269 -11 l1230
0 55 28 c60 30 105 85 119 148 5 21 10 263 10 537 l0 498 32 -3 32 -3 76 -305
c90 -357 96 -377 120 -390 26 -14 73 -12 93 2 9 7 83 152 164 323 l149 310
155 70 c86 38 216 97 289 129 74 33 142 68 152 78 23 23 23 70 0 99 -15 18
-65 34 -258 83 l-239 61 -5 1073 c-5 1048 -5 1074 -24 1088 -16 11 -84 14
-378 14 l-358 0 0 373 c0 204 -5 390 -10 411 -14 63 -59 118 -119 149 l-55 27
-1235 0 c-1025 -1 -1243 -3 -1275 -15z m2513 -172 c21 -25 21 -34 19 -397 l-3
-371 -1068 -5 c-1040 -5 -1069 -6 -1083 -24 -7 -11 -16 -33 -19 -50 -3 -17 -4
-588 -3 -1268 l3 -1236 24 -26 24 -26 1064 0 1063 0 0 -195 0 -195 -1260 0
-1260 0 0 1890 c0 1877 0 1890 20 1910 20 20 33 20 1239 20 l1220 0 20 -27z
m781 -1918 c0 -542 -2 -985 -5 -985 -3 0 -131 32 -285 70 -289 72 -318 77
-351 59 -43 -23 -42 -49 11 -259 27 -109 50 -201 50 -204 0 -3 -495 -6 -1100
-6 l-1100 0 0 1155 0 1155 1390 0 1390 0 0 -985z m-1461 -2210 c46 -24 55 -74
20 -119 l-20 -26 -555 0 c-337 0 -562 4 -573 10 -31 16 -45 64 -29 96 25 54
21 54 596 54 448 0 537 -2 561 -15z"/>
<path d="M1186 4599 c-20 -16 -26 -29 -26 -59 0 -30 6 -43 26 -59 26 -21 36
-21 500 -21 l473 0 27 23 c35 31 37 77 4 112 l-23 25 -477 0 c-468 0 -478 0
-504 -21z"/>
<path d="M2466 4599 c-20 -16 -26 -29 -26 -59 0 -58 33 -80 122 -80 60 0 72 3
93 25 16 15 25 36 25 55 0 19 -9 40 -25 55 -21 22 -33 25 -93 25 -55 0 -75 -4
-96 -21z"/>
<path d="M1542 3437 c-22 -23 -22 -26 -22 -450 0 -414 1 -428 20 -447 20 -20
33 -20 989 -20 l970 0 20 26 c20 26 21 37 21 446 l0 419 -25 24 -24 25 -964 0
-964 0 -21 -23z m1838 -447 l0 -310 -570 0 -570 0 0 310 0 310 570 0 570 0 0
-310z"/>
<path d="M1546 2179 c-20 -16 -26 -29 -26 -59 0 -30 6 -43 26 -59 26 -21 36
-21 510 -21 338 0 491 3 508 11 36 17 52 61 36 99 -7 17 -21 35 -31 40 -11 6
-213 10 -507 10 -480 0 -490 0 -516 -21z"/>
<path d="M1546 1879 c-20 -16 -26 -29 -26 -59 0 -30 6 -43 26 -59 26 -21 34
-21 689 -21 645 0 663 1 688 20 44 35 43 93 -2 127 -12 9 -174 12 -682 13
-659 0 -667 0 -693 -21z"/>
</g>
</svg>
