<svg class="svg-icon" style="width: currWidth; height: currHeight;vertical-align: middle;fill: currentColor;overflow: hidden;" viewBox="0 0 1024 1024" version="1.1" xmlns="http://www.w3.org/2000/svg"><path d="M825.6 160H704V128a32 32 0 0 0-64 0v32H384V128a32 32 0 0 0-64 0v32H192a64 64 0 0 0-64 64v640a60.16 60.16 0 0 0 64 64h634.88a68.48 68.48 0 0 0 64-64v-640c5.12-38.4-26.88-64-65.28-64z m-505.6 512a64 64 0 1 1 64-64 64 64 0 0 1-64 64z m192 0a64 64 0 1 1 64-64 64 64 0 0 1-64 64z m192 0a64 64 0 1 1 64-64 64 64 0 0 1-64 64z m121.6-320H192v-128h128V256a32 32 0 0 0 64 0v-32h256V256a32 32 0 0 0 64 0v-32h121.6z"  /></svg>