<?xml version="1.0" standalone="no"?>
<!DOCTYPE svg PUBLIC "-//W3C//DTD SVG 20010904//EN"
 "http://www.w3.org/TR/2001/REC-SVG-20010904/DTD/svg10.dtd">
<svg version="1.0" xmlns="http://www.w3.org/2000/svg"
 width="512.000000pt" height="512.000000pt" viewBox="0 0 512.000000 512.000000"
 preserveAspectRatio="xMidYMid meet">

<g transform="translate(0.000000,512.000000) scale(0.100000,-0.100000)"
fill="#000000" stroke="none">
<path d="M3596 3898 c-17 -28 -1016 -1890 -1016 -1895 0 -1 16 -3 36 -3 110 0
297 -73 397 -154 32 -26 61 -46 63 -43 2 2 142 470 311 1041 297 1006 305
1037 288 1056 -24 27 -61 25 -79 -2z"/>
<path d="M2405 3804 c-449 -36 -820 -152 -1180 -371 -112 -69 -289 -201 -375
-281 l-65 -61 155 -156 c85 -86 221 -219 301 -295 l145 -139 80 66 c265 222
622 368 950 390 l94 6 0 424 0 423 -32 -2 c-18 -1 -51 -3 -73 -4z"/>
<path d="M2612 3388 l3 -423 90 -7 c50 -4 126 -15 169 -23 44 -8 81 -13 83
-11 19 19 402 751 396 756 -15 14 -198 61 -328 85 -106 19 -335 45 -401 45
-12 0 -14 -58 -12 -422z"/>
<path d="M3697 3533 c-9 -14 -237 -793 -237 -808 0 -8 28 -33 63 -56 34 -23
98 -72 142 -108 l79 -65 293 300 292 299 -32 33 c-52 55 -225 191 -327 258
-121 78 -267 157 -273 147z"/>
<path d="M655 2958 c-31 -35 -96 -115 -144 -178 -306 -406 -481 -893 -507
-1415 -6 -116 -5 -133 10 -148 16 -15 53 -17 410 -17 323 0 396 2 405 14 6 7
16 72 21 144 26 371 152 689 387 980 42 51 74 94 72 95 -2 1 -137 134 -300
295 l-296 293 -58 -63z"/>
<path d="M4104 2721 l-291 -296 59 -70 c234 -275 371 -616 398 -990 5 -75 15
-144 21 -151 9 -12 82 -14 405 -14 357 0 394 2 410 17 15 15 16 32 10 148 -13
256 -69 538 -152 764 -47 128 -169 374 -239 485 -97 154 -301 409 -323 405 -4
-1 -138 -135 -298 -298z"/>
<path d="M2394 1881 c-230 -62 -409 -244 -469 -476 -18 -71 -20 -176 -3 -193
9 -9 165 -12 639 -12 549 0 628 2 639 15 9 11 11 39 7 98 -16 246 -203 480
-447 559 -95 30 -271 35 -366 9z"/>
</g>
</svg>
