<?xml version="1.0" standalone="no"?>
<!DOCTYPE svg PUBLIC "-//W3C//DTD SVG 20010904//EN"
 "http://www.w3.org/TR/2001/REC-SVG-20010904/DTD/svg10.dtd">
<svg version="1.0" xmlns="http://www.w3.org/2000/svg"
 width="388.000000pt" height="375.000000pt" viewBox="0 0 388.000000 375.000000"
 preserveAspectRatio="xMidYMid meet">

<g transform="translate(0.000000,375.000000) scale(0.100000,-0.100000)"
>
<path d="M990 3306 c-143 -40 -261 -158 -311 -311 -11 -32 -14 -265 -19 -1120
l-5 -1080 -204 -3 c-241 -3 -241 -3 -241 -91 1 -185 126 -384 297 -474 134
-70 78 -67 1180 -67 975 0 994 0 1055 21 127 41 238 147 290 276 l23 58 3
1033 2 1032 335 0 c353 0 380 3 391 46 3 12 4 103 2 201 l-3 179 -38 76 c-45
91 -112 157 -207 202 l-65 31 -1220 2 c-955 1 -1230 -1 -1265 -11z m2050 -120
c0 -7 -7 -19 -16 -27 -21 -18 -58 -93 -78 -158 -14 -49 -16 -179 -16 -1241 0
-1053 -2 -1192 -16 -1240 -31 -105 -94 -174 -194 -211 -78 -30 -204 -23 -275
13 -66 35 -118 90 -151 162 -22 48 -27 77 -32 166 -2 60 -8 114 -13 122 -7 11
-143 14 -731 18 l-723 5 0 1080 0 1080 22 46 c42 91 124 159 222 185 72 20
2001 19 2001 0z m459 -23 c29 -15 70 -47 92 -71 55 -64 73 -124 73 -262 l1
-115 -303 -3 -304 -2 4 132 c4 151 18 195 82 261 95 96 235 120 355 60z
m-1358 -2578 c8 -97 36 -172 89 -243 22 -29 40 -55 40 -58 0 -2 -354 -3 -787
-2 -777 3 -789 3 -844 25 -102 38 -183 103 -236 186 -30 47 -66 154 -57 168 3
5 368 8 897 7 l892 -3 6 -80z"/>
<path d="M1835 2884 c-78 -60 -240 -117 -368 -129 -119 -11 -112 8 -115 -286
-3 -287 4 -351 48 -444 60 -125 157 -195 432 -311 l58 -24 152 71 c176 81 244
128 294 203 76 114 78 128 82 451 3 237 1 293 -11 309 -10 14 -38 22 -113 32
-133 19 -214 44 -306 99 -81 47 -120 55 -153 29z m131 -163 c92 -46 186 -76
267 -86 l58 -7 -3 -247 -3 -246 -34 -64 c-44 -80 -85 -112 -242 -184 l-124
-58 -135 64 c-152 72 -199 111 -239 196 -26 55 -26 58 -26 295 l0 240 89 17
c92 19 219 65 271 99 17 11 33 20 36 20 4 0 42 -18 85 -39z"/>
<path d="M2026 2483 c-44 -43 -125 -120 -178 -172 -84 -82 -98 -92 -104 -75
-29 79 -48 121 -61 137 -34 37 -103 9 -103 -41 0 -39 91 -272 110 -282 42 -23
61 -9 280 202 196 188 220 215 220 243 0 37 -26 65 -59 65 -15 0 -52 -27 -105
-77z"/>
<path d="M1185 1445 c-30 -29 -31 -45 -4 -79 l20 -26 685 0 c671 0 684 0 704
20 26 26 25 51 -1 84 l-20 26 -680 0 -680 0 -24 -25z"/>
<path d="M1187 1178 c-27 -21 -31 -61 -8 -89 l19 -24 687 0 687 0 19 24 c24
30 24 56 -1 81 -20 20 -33 20 -703 20 -531 0 -687 -3 -700 -12z"/>
</g>
</svg>
