<svg viewBox="0 0 320 278" xmlns="http://www.w3.org/2000/svg">
<path fill-rule="evenodd" clip-rule="evenodd" d="M218.51 0.879883C212.987 0.879883 208.51 5.35704 208.51 10.8799C208.51 16.4027 212.987 20.8799 218.51 20.8799H287.598L108.408 177.978C104.255 181.619 103.84 187.937 107.481 192.09C111.121 196.243 117.439 196.658 121.592 193.017L299.51 37.0349V93.8799C299.51 99.4027 303.987 103.88 309.51 103.88C315.033 103.88 319.51 99.4027 319.51 93.8799V13.8799C319.51 6.70018 313.689 0.879883 306.51 0.879883H218.51ZM0 89.4978C0 67.4064 17.9086 49.4978 40 49.4978H148.5C154.023 49.4978 158.5 53.975 158.5 59.4978C158.5 65.0207 154.023 69.4978 148.5 69.4978H40C28.9543 69.4978 20 78.4521 20 89.4978V237.498C20 248.544 28.9543 257.498 40 257.498H226C237.046 257.498 246 248.544 246 237.498V156.998C246 151.475 250.477 146.998 256 146.998C261.523 146.998 266 151.475 266 156.998V237.498C266 259.589 248.091 277.498 226 277.498H40C17.9086 277.498 0 259.589 0 237.498V89.4978Z"/>
</svg>
