<?xml version="1.0" standalone="no"?>
<!DOCTYPE svg PUBLIC "-//W3C//DTD SVG 20010904//EN"
 "http://www.w3.org/TR/2001/REC-SVG-20010904/DTD/svg10.dtd">
<svg version="1.0" xmlns="http://www.w3.org/2000/svg"
 width="512.000000pt" height="512.000000pt" viewBox="0 0 512.000000 512.000000"
 preserveAspectRatio="xMidYMid meet">

<g transform="translate(0.000000,512.000000) scale(0.100000,-0.100000)"
fill="#000000" stroke="none">
<path d="M2320 5109 c-198 -19 -451 -76 -635 -143 -143 -53 -402 -183 -525
-263 -381 -251 -691 -602 -891 -1008 -127 -260 -198 -483 -241 -760 -31 -200
-31 -550 0 -750 67 -430 234 -825 494 -1173 89 -119 302 -339 423 -437 209
-170 502 -336 746 -422 293 -104 550 -148 869 -148 253 0 399 18 626 75 196
50 313 94 509 190 274 134 481 286 700 512 205 211 330 388 460 653 116 235
188 457 229 705 86 516 11 1050 -213 1515 -43 89 -78 149 -96 163 -105 83
-255 13 -255 -119 0 -35 13 -73 54 -160 158 -333 220 -607 220 -969 1 -217 -9
-312 -50 -498 -203 -911 -951 -1597 -1884 -1727 -165 -23 -448 -21 -618 5
-640 94 -1199 452 -1556 996 -133 204 -255 494 -306 729 -69 322 -68 687 6
995 124 523 417 969 849 1290 294 219 633 358 1015 417 157 24 471 24 630 -1
339 -52 644 -169 928 -357 118 -78 154 -89 217 -64 107 40 139 165 64 249 -32
37 -168 128 -294 197 -449 247 -974 356 -1475 308z"/>
<path d="M4273 4290 c-59 -35 -90 -108 -73 -171 14 -50 71 -123 113 -143 125
-59 261 49 226 179 -13 47 -69 119 -109 140 -41 21 -118 19 -157 -5z"/>
<path d="M1820 3748 c-47 -32 -71 -68 -77 -116 -7 -54 24 -118 74 -152 36 -25
38 -25 327 -30 310 -6 329 -9 411 -63 37 -25 125 -108 125 -119 0 -4 -183 -8
-408 -8 -377 0 -410 -1 -442 -19 -105 -56 -103 -220 3 -279 29 -15 77 -17 476
-20 l443 -3 -6 -32 c-22 -111 -124 -234 -243 -290 l-68 -32 -290 -5 c-280 -5
-291 -6 -327 -28 -51 -32 -82 -98 -73 -158 8 -54 -8 -37 524 -598 333 -350
413 -429 448 -442 76 -29 160 5 193 79 23 50 25 86 6 130 -7 18 -154 181 -327
362 l-313 330 101 7 c253 17 472 154 605 378 36 60 81 190 93 263 6 36 7 37
47 37 124 0 212 90 188 195 -20 90 -72 125 -187 125 l-81 0 -18 45 c-9 25 -30
66 -46 91 -15 24 -28 47 -28 49 0 3 48 5 108 5 130 0 168 10 209 52 75 79 56
203 -38 250 -31 17 -86 18 -705 18 l-671 0 -33 -22z"/>
</g>
</svg>
