<?xml version="1.0" standalone="no"?>
<!DOCTYPE svg PUBLIC "-//W3C//DTD SVG 20010904//EN"
 "http://www.w3.org/TR/2001/REC-SVG-20010904/DTD/svg10.dtd">
<svg version="1.0" xmlns="http://www.w3.org/2000/svg"
 width="484.000000pt" height="483.000000pt" viewBox="0 0 484.000000 483.000000"
 preserveAspectRatio="xMidYMid meet">

<g transform="translate(0.000000,483.000000) scale(0.100000,-0.100000)"
fill="#000000" stroke="none">
<path d="M607 4468 c-37 -4 -82 -15 -98 -24 -38 -19 -63 -74 -54 -118 13 -62
257 -781 270 -795 2 -2 23 13 47 33 96 83 258 132 400 123 85 -6 88 -5 94 17
8 32 -12 132 -40 202 -62 158 -181 376 -242 443 -96 107 -205 141 -377 119z"/>
<path d="M1000 3519 c-131 -38 -185 -100 -183 -208 1 -81 62 -329 173 -711
103 -351 202 -689 250 -855 21 -71 64 -218 95 -325 32 -107 66 -226 77 -264
10 -38 21 -73 24 -78 3 -5 32 16 64 46 57 52 143 96 190 96 22 0 312 287 338
334 24 45 22 169 -5 286 -13 52 -34 149 -48 215 -247 1142 -546 1591 -975
1464z"/>
<path d="M3100 1649 c-341 -24 -600 -84 -818 -191 -121 -59 -202 -116 -294
-206 l-68 -66 55 -48 c138 -123 163 -315 61 -467 l-35 -51 1148 0 1148 0 21
73 c35 118 45 212 39 352 -8 200 -59 335 -167 446 -64 65 -173 122 -265 138
-155 27 -583 37 -825 20z"/>
<path d="M1642 1150 c-79 -28 -126 -71 -164 -148 -27 -55 -33 -78 -33 -132 0
-114 57 -210 156 -265 48 -27 63 -30 139 -30 69 0 94 4 133 24 108 53 167 149
167 272 0 94 -29 158 -100 222 -82 74 -192 95 -298 57z m226 -77 c25 -15 60
-48 77 -71 25 -37 30 -55 33 -117 3 -61 0 -82 -18 -120 -68 -141 -251 -180
-368 -79 -62 53 -86 105 -86 184 1 103 61 191 155 227 56 21 152 10 207 -24z"/>
<path d="M1700 989 c-66 -27 -102 -102 -77 -161 35 -80 121 -111 187 -66 19
13 40 35 47 48 32 62 1 149 -62 176 -39 16 -60 17 -95 3z"/>
<path d="M1820 507 c-52 -26 -62 -104 -18 -143 19 -18 65 -19 1175 -19 l1155
0 24 28 c33 39 31 81 -5 118 l-29 29 -1139 0 c-897 0 -1143 -3 -1163 -13z"/>
</g>
</svg>
