<?xml version="1.0" standalone="no"?>
<!DOCTYPE svg PUBLIC "-//W3C//DTD SVG 20010904//EN"
 "http://www.w3.org/TR/2001/REC-SVG-20010904/DTD/svg10.dtd">
<svg version="1.0" xmlns="http://www.w3.org/2000/svg"
 width="280.000000pt" height="260.000000pt" viewBox="0 0 280.000000 260.000000"
 preserveAspectRatio="xMidYMid meet">

<g transform="translate(0.000000,260.000000) scale(0.100000,-0.100000)"
fill="#000000" stroke="none">
<path d="M118 2591 c-47 -3 -90 -10 -95 -14 -13 -13 -10 -724 3 -737 6 -6 43
-14 82 -17 l72 -6 0 -63 0 -64 -63 0 c-107 0 -102 20 -102 -390 0 -279 3 -350
14 -363 10 -13 30 -17 82 -17 l69 0 0 -70 0 -69 -32 -6 c-18 -2 -53 -6 -78 -7
l-45 -3 -8 -70 c-4 -38 -7 -202 -5 -363 2 -236 6 -294 17 -301 27 -17 550 -23
1632 -20 858 3 1099 7 1111 17 21 17 28 195 20 497 l-7 240 -72 6 c-40 3 -74
7 -77 10 -2 2 -5 33 -7 69 l-4 65 72 3 c51 2 75 7 85 19 10 13 13 87 13 357 0
412 4 396 -105 396 l-70 0 0 64 0 63 71 5 c111 8 104 -19 104 388 0 322 -1
351 -18 367 -17 17 -83 18 -1295 19 -702 1 -1316 -2 -1364 -5z m2582 -381 l0
-280 -1300 0 -1300 0 0 280 0 280 1300 0 1300 0 0 -280z m-170 -455 l0 -65
-1125 0 -1125 0 0 65 0 65 1125 0 1125 0 0 -65z m170 -455 l0 -280 -354 0
c-204 0 -366 -4 -380 -10 -29 -11 -45 -55 -27 -73 9 -9 97 -13 303 -15 l291
-3 -6 -65 c-2 -36 -8 -68 -12 -72 -9 -10 -1825 -16 -2052 -7 l-183 7 0 69 0
68 375 3 c321 3 377 5 385 18 10 16 4 48 -12 65 -5 6 -181 12 -466 15 l-457 5
-3 278 -2 277 1300 0 1300 0 0 -280z m0 -905 l0 -285 -1294 0 -1293 0 -5 278
c-3 152 -3 280 -1 285 2 4 587 7 1299 7 l1294 0 0 -285z"/>
<path d="M353 2354 c-5 -11 -8 -77 -8 -147 0 -165 -5 -160 163 -155 159 4 154
-1 150 170 -2 69 -7 130 -11 135 -5 4 -71 9 -148 11 -128 4 -139 3 -146 -14z
m205 -136 l3 -58 -61 0 -60 0 0 60 0 61 58 -3 57 -3 3 -57z"/>
<path d="M798 2263 c-34 -5 -50 -25 -46 -55 3 -20 11 -24 58 -31 72 -12 1548
-12 1620 0 60 9 74 30 46 68 -14 20 -28 20 -833 21 -450 1 -830 -1 -845 -3z"/>
<path d="M418 1461 c-31 -3 -60 -10 -64 -14 -8 -8 -8 -286 0 -294 2 -2 65 -4
140 -6 173 -2 166 -9 166 159 0 142 -6 154 -73 154 -23 0 -58 2 -77 4 -19 2
-61 1 -92 -3z m140 -163 l3 -58 -61 0 -60 0 0 60 0 61 58 -3 57 -3 3 -57z"/>
<path d="M858 1353 c-31 -5 -69 -47 -62 -68 13 -33 171 -49 224 -22 35 17 38
52 6 72 -26 17 -118 27 -168 18z"/>
<path d="M2016 1350 c-77 -10 -109 -48 -69 -81 12 -11 70 -15 247 -17 127 -2
256 0 286 5 50 7 55 11 58 35 2 20 -4 31 -23 44 -23 15 -57 18 -233 20 -114 1
-234 -1 -266 -6z"/>
<path d="M408 553 c-20 -2 -41 -10 -47 -16 -11 -14 -16 -95 -13 -214 l2 -83
138 0 c75 0 144 5 152 10 12 7 16 37 18 137 4 167 5 165 -119 168 -52 2 -111
1 -131 -2z m152 -163 l0 -60 -60 0 -60 0 0 60 0 60 60 0 60 0 0 -60z"/>
<path d="M885 441 c-65 -6 -70 -8 -79 -34 -7 -19 -6 -31 2 -39 20 -20 450 -30
1067 -24 325 3 606 9 625 14 24 5 36 14 38 27 4 32 -12 47 -59 56 -48 9 -1481
9 -1594 0z"/>
</g>
</svg>
