<?xml version="1.0" standalone="no"?>
<!DOCTYPE svg PUBLIC "-//W3C//DTD SVG 20010904//EN"
 "http://www.w3.org/TR/2001/REC-SVG-20010904/DTD/svg10.dtd">
<svg version="1.0" xmlns="http://www.w3.org/2000/svg"
 width="159.000000pt" height="182.000000pt" viewBox="0 0 159.000000 182.000000"
 preserveAspectRatio="xMidYMid meet">

<g transform="translate(0.000000,182.000000) scale(0.100000,-0.100000)"
fill="#000000" stroke="none">
<path d="M719 1647 c-111 -101 -271 -166 -434 -176 l-100 -6 -3 -160 c-4 -209
12 -432 36 -520 43 -157 121 -284 245 -401 138 -130 260 -214 310 -214 46 0
183 94 319 220 129 118 209 260 248 438 17 74 20 128 20 358 0 309 8 284 -94
284 -145 0 -310 68 -450 187 -22 18 -42 33 -45 33 -3 -1 -27 -20 -52 -43z
m113 -106 c113 -79 231 -126 358 -145 l85 -12 0 -265 c0 -252 -1 -267 -24
-334 -57 -168 -141 -287 -288 -407 -86 -71 -173 -128 -194 -128 -26 0 -151 93
-247 185 -104 99 -154 169 -194 272 -49 127 -58 193 -58 443 l0 230 23 4 c12
2 53 9 91 16 100 16 216 64 304 125 42 29 79 53 82 54 3 0 31 -17 62 -38z"/>
<path d="M755 1500 c-10 -15 -114 -74 -185 -103 -68 -28 -148 -51 -214 -62
l-38 -6 5 -217 c4 -184 8 -229 27 -292 47 -161 114 -261 260 -388 110 -95 144
-116 175 -108 33 9 213 154 270 219 60 68 129 212 151 312 13 60 18 128 18
275 l1 194 -103 27 c-119 31 -203 66 -288 120 -66 42 -70 44 -79 29z"/>
</g>
</svg>
