<?xml version="1.0" standalone="no"?>
<!DOCTYPE svg PUBLIC "-//W3C//DTD SVG 20010904//EN"
 "http://www.w3.org/TR/2001/REC-SVG-20010904/DTD/svg10.dtd">
<svg version="1.0" xmlns="http://www.w3.org/2000/svg"
 width="512.000000pt" height="512.000000pt" viewBox="0 0 512.000000 512.000000"
 preserveAspectRatio="xMidYMid meet">

<g transform="translate(0.000000,512.000000) scale(0.100000,-0.100000)"
fill="#000000" stroke="none">
<path d="M1540 4622 l-1015 -499 0 -1044 0 -1044 27 -107 c91 -357 303 -718
541 -917 77 -65 1445 -1004 1462 -1004 6 0 204 132 440 293 1116 762 1029 699
1157 845 209 238 361 546 425 860 14 70 17 204 20 1091 3 820 2 1013 -9 1021
-10 9 -1987 984 -2023 999 -5 2 -467 -220 -1025 -494z m1830 -367 c442 -218
812 -403 822 -412 17 -15 18 -63 18 -843 0 -909 0 -902 -61 -1078 -77 -217
-189 -402 -339 -554 -87 -90 -142 -130 -660 -483 -405 -276 -573 -384 -593
-385 -21 0 -176 101 -590 382 -512 349 -571 391 -662 483 -57 56 -126 139
-159 189 -69 105 -155 280 -190 389 -56 172 -56 171 -56 1062 0 796 1 822 19
839 20 18 1618 805 1636 806 6 0 373 -178 815 -395z"/>
<path d="M1795 4135 l-760 -371 -3 -779 c-2 -859 -3 -857 60 -1033 40 -115 92
-217 169 -332 114 -170 160 -208 753 -610 296 -201 542 -364 548 -362 6 2 250
166 542 364 446 304 544 375 612 444 163 165 302 424 348 649 14 71 16 173 14
869 l-3 789 -670 329 c-368 181 -711 349 -760 372 l-91 43 -759 -372z m1285
-758 c36 -18 48 -59 26 -91 l-16 -26 -205 0 -205 0 41 -52 c49 -62 95 -154
104 -209 l7 -39 124 0 c111 0 126 -2 144 -20 11 -11 20 -31 20 -45 0 -14 -9
-34 -20 -45 -18 -18 -33 -20 -144 -20 l-124 0 -11 -47 c-42 -170 -168 -305
-330 -353 -36 -11 -109 -23 -163 -28 l-96 -7 268 -254 c148 -140 283 -269 301
-287 36 -37 41 -74 14 -104 -43 -47 -50 -41 -443 330 -203 192 -373 357 -376
366 -9 24 4 63 24 74 10 6 81 10 157 10 175 1 258 11 325 42 89 42 161 130
193 236 l6 22 -335 0 -335 0 -20 26 c-12 15 -21 32 -21 39 0 7 9 24 21 39 l20
26 335 0 335 0 -6 23 c-44 144 -156 242 -306 266 -35 6 -133 11 -216 11 l-153
0 -16 26 c-22 32 -10 73 26 91 19 10 143 13 525 13 382 0 506 -3 525 -13z"/>
</g>
</svg>
