<svg width="170" height="273" viewBox="0 0 170 273" fill="none" xmlns="http://www.w3.org/2000/svg">
<g id="Ship">
<path id="Top" d="M113.798 65.3831C112.104 59.3185 107.452 43.1728 102.005 28.5385C99.2829 21.2242 96.3545 14.2677 93.4896 9.13256C92.0582 6.56701 90.6304 4.43344 89.2376 2.93466C87.862 1.45449 86.4343 0.5 85 0.5C83.5656 0.5 82.138 1.45449 80.7624 2.93466C79.3696 4.43344 77.9418 6.56701 76.5104 9.13256C73.6455 14.2677 70.7171 21.2242 67.9946 28.5385C62.5476 43.1728 57.8965 59.3185 56.2023 65.3831C55.7552 66.9833 56.9768 68.5 58.6081 68.5H111.392C113.023 68.5 114.245 66.9833 113.798 65.3831Z" stroke="black"/>
<path id="Bottom" d="M58.1517 254.5C56.3191 254.5 55.1094 256.406 55.8896 258.064L62.0073 271.064C62.4196 271.941 63.3009 272.5 64.2693 272.5H107.124C108.16 272.5 109.089 271.861 109.459 270.893L114.429 257.893C115.055 256.256 113.847 254.5 112.094 254.5H58.1517Z" stroke="black"/>
<path id="Wing 1" d="M51.8398 212.143C53.5041 211.233 55.5 212.45 55.5 214.331V252.381C55.5 253.498 54.7593 254.479 53.6854 254.785L4.39366 268.838C2.91838 269.258 1.40306 268.258 1.30597 266.695C1.02984 262.249 0.865948 252.271 4.19443 244.912C4.69194 243.812 5.66934 242.576 6.97221 241.258C8.28242 239.933 9.95295 238.493 11.8738 236.988C15.7159 233.976 20.5901 230.676 25.6577 227.462C35.7947 221.034 46.7422 214.93 51.8398 212.143Z" stroke="black"/>
<g id="Body">
<path id="Rectangle 20" d="M56 192.459H55.5V192.959V252C55.5 253.381 56.6193 254.5 58 254.5H112C113.381 254.5 114.5 253.381 114.5 252V192.959V192.459H114H56Z" stroke="black"/>
<rect id="Rectangle 21" x="55.5" y="130.48" width="59" height="62.0406" stroke="black"/>
<path id="Rectangle 22" d="M114 130.541H114.5V130.041V71C114.5 69.6193 113.381 68.5 112 68.5H58C56.6193 68.5 55.5 69.6193 55.5 71V130.041V130.541H56H114Z" stroke="black"/>
</g>
<path id="Wing 3" d="M118.16 212.143C116.496 211.233 114.5 212.45 114.5 214.331V252.381C114.5 253.498 115.241 254.479 116.315 254.785L165.606 268.838C167.082 269.258 168.597 268.258 168.694 266.695C168.97 262.249 169.134 252.271 165.806 244.912C165.308 243.812 164.331 242.576 163.028 241.258C161.718 239.933 160.047 238.493 158.126 236.988C154.284 233.976 149.41 230.676 144.342 227.462C134.205 221.034 123.258 214.93 118.16 212.143Z" stroke="black"/>
</g>
</svg>
