<?xml version="1.0" standalone="no"?>
<!DOCTYPE svg PUBLIC "-//W3C//DTD SVG 20010904//EN"
 "http://www.w3.org/TR/2001/REC-SVG-20010904/DTD/svg10.dtd">
<svg version="1.0" xmlns="http://www.w3.org/2000/svg"
 width="512.000000pt" height="512.000000pt" viewBox="0 0 512.000000 512.000000"
 preserveAspectRatio="xMidYMid meet">

<g transform="translate(0.000000,512.000000) scale(0.100000,-0.100000)"
fill="#000000" stroke="none">
<path d="M2290 4759 c-363 -37 -758 -172 -1072 -366 -93 -58 -256 -176 -321
-234 l-38 -34 334 -334 335 -334 58 45 c119 90 270 174 392 218 41 15 67 31
73 44 4 12 24 95 44 186 23 107 46 187 66 228 39 79 117 158 192 195 l57 28 0
184 c0 170 -1 185 -17 184 -10 -1 -56 -6 -103 -10z"/>
<path d="M2710 4585 l0 -184 56 -28 c75 -37 155 -117 193 -195 20 -41 43 -121
66 -228 20 -91 40 -174 44 -186 6 -13 32 -29 73 -44 121 -44 280 -132 392
-218 l58 -45 334 334 c321 321 333 334 316 352 -30 34 -243 190 -342 252 -212
131 -501 251 -745 308 -103 24 -252 48 -387 61 l-58 6 0 -185z"/>
<path d="M2483 4100 c-18 -10 -39 -30 -48 -43 -33 -50 -252 -1128 -315 -1547
-53 -353 -33 -480 97 -620 94 -102 205 -150 344 -150 139 0 247 47 342 149
130 141 150 267 97 621 -61 409 -283 1498 -315 1547 -25 38 -75 63 -125 63
-27 0 -58 -8 -77 -20z"/>
<path d="M576 3831 c-162 -195 -333 -493 -424 -742 -73 -197 -124 -430 -147
-661 l-7 -68 474 0 474 0 13 91 c35 245 141 505 288 704 l65 88 -334 334 -335
335 -67 -81z"/>
<path d="M4141 3576 l-333 -333 65 -88 c146 -198 254 -461 289 -707 l12 -88
473 0 c373 0 473 3 473 13 0 50 -35 292 -56 386 -83 377 -281 786 -519 1071
-37 44 -67 80 -68 80 -1 0 -152 -150 -336 -334z"/>
<path d="M5 1993 c59 -605 293 -1124 694 -1545 86 -91 125 -109 193 -89 36 11
83 53 291 259 329 328 330 329 182 498 -233 266 -374 570 -411 887 l-7 57
-474 0 -475 0 7 -67z"/>
<path d="M4166 2003 c-37 -313 -181 -627 -405 -880 -93 -105 -105 -130 -96
-193 7 -43 20 -58 258 -297 270 -272 297 -292 374 -279 31 6 55 25 130 101
313 322 549 772 643 1232 18 83 50 319 50 360 0 10 -100 13 -474 13 l-473 0
-7 -57z"/>
</g>
</svg>
