<svg xmlns="http://www.w3.org/2000/svg" xmlns:xlink="http://www.w3.org/1999/xlink" version="1.1" viewBox="0 0 256 256" xml:space="preserve">

<defs>
</defs>
<g transform="translate(1.4065934065934016 1.4065934065934016) scale(2.81 2.81)" >
	<path d="M 11.823 59.191 c -0.966 -0.882 -2.464 -0.815 -3.347 0.151 L 1.61 66.858 c -0.882 0.966 -0.815 2.464 0.151 3.347 L 22.75 89.38 c 0.966 0.882 2.464 0.815 3.347 -0.151 l 6.867 -7.516 c 0.882 -0.966 0.815 -2.464 -0.151 -3.347 L 11.823 59.191 z" style=" stroke-dasharray: none; stroke-linecap: butt; stroke-linejoin: miter; stroke-miterlimit: 10; fill-rule: nonzero; opacity: 1;" transform=" matrix(1 0 0 1 0 0) " stroke-linecap="round" />
	<path d="M 31.893 27.743 c 1.353 0 2.565 0.778 3.186 1.979 c 0.124 0.239 0.254 0.477 0.39 0.713 c 0.136 0.236 0.277 0.467 0.423 0.694 c 0.729 1.138 0.797 2.577 0.12 3.749 c -0.982 1.701 -0.399 3.876 1.301 4.858 l 4.71 2.72 c 1.701 0.982 3.876 0.399 4.858 -1.301 l 0.001 -0.002 c 0.666 -1.154 1.921 -1.834 3.252 -1.769 c 0.579 0.028 1.159 0.029 1.74 0 c 1.329 -0.064 2.581 0.617 3.246 1.77 l 0.001 0.001 c 0.982 1.701 3.157 2.284 4.858 1.301 l 4.71 -2.72 c 1.701 -0.982 2.284 -3.157 1.301 -4.858 l -0.001 -0.001 c -0.665 -1.151 -0.63 -2.577 0.091 -3.695 c 0.315 -0.49 0.605 -0.992 0.87 -1.508 c 0.609 -1.185 1.826 -1.932 3.158 -1.932 h 0.002 c 1.964 0 3.557 -1.592 3.557 -3.557 v -5.44 c 0 -1.964 -1.592 -3.557 -3.557 -3.557 c -1.353 0 -2.565 -0.778 -3.186 -1.979 c -0.124 -0.24 -0.254 -0.477 -0.39 -0.713 s -0.277 -0.467 -0.423 -0.694 c -0.729 -1.138 -0.797 -2.577 -0.12 -3.749 c 0.982 -1.701 0.399 -3.876 -1.301 -4.858 l -4.71 -2.72 c -1.701 -0.982 -3.876 -0.399 -4.858 1.301 L 55.12 1.78 c -0.666 1.154 -1.921 1.834 -3.252 1.769 c -0.579 -0.028 -1.159 -0.029 -1.74 0 c -1.329 0.064 -2.581 -0.617 -3.246 -1.77 l -0.001 -0.001 c -0.982 -1.701 -3.158 -2.284 -4.858 -1.301 l -4.71 2.72 c -1.701 0.982 -2.284 3.158 -1.301 4.858 l 0.001 0.001 c 0.665 1.151 0.63 2.577 -0.091 3.695 c -0.315 0.49 -0.605 0.992 -0.87 1.508 c -0.609 1.185 -1.826 1.932 -3.158 1.932 h -0.002 c -1.964 0 -3.557 1.592 -3.557 3.557 v 5.44 C 28.336 26.151 29.929 27.743 31.893 27.743 z M 44.562 10.315 c 6.159 -3.555 14.033 -1.446 17.588 4.713 c 3.556 6.159 1.446 14.033 -4.713 17.588 c -6.159 3.556 -14.033 1.446 -17.588 -4.713 C 36.293 21.745 38.404 13.87 44.562 10.315 z" style=" stroke-dasharray: none; stroke-linecap: butt; stroke-linejoin: miter; stroke-miterlimit: 10; fill-rule: nonzero; opacity: 1;" transform=" matrix(1 0 0 1 0 0) " stroke-linecap="round" />
	<path d="M 48.791 26.691 c -0.828 0 -1.5 0.671 -1.5 1.5 s 0.672 1.5 1.5 1.5 h 4.42 c 0.828 0 1.5 -0.671 1.5 -1.5 s -0.672 -1.5 -1.5 -1.5 h -0.71 v -6.241 c 0 -0.829 -0.672 -1.5 -1.5 -1.5 h -2.21 c -0.828 0 -1.5 0.671 -1.5 1.5 s 0.672 1.5 1.5 1.5 h 0.71 v 4.741 H 48.791 z" style=" stroke-dasharray: none; stroke-linecap: butt; stroke-linejoin: miter; stroke-miterlimit: 10; fill-rule: nonzero; opacity: 1;" transform=" matrix(1 0 0 1 0 0) " stroke-linecap="round" />
	<path d="M 51.001 16.574 c 0.828 0 1.5 -0.671 1.5 -1.5 v -0.332 c 0 -0.829 -0.672 -1.5 -1.5 -1.5 s -1.5 0.671 -1.5 1.5 v 0.332 C 49.501 15.903 50.173 16.574 51.001 16.574 z" style=" stroke-dasharray: none; stroke-linecap: butt; stroke-linejoin: miter; stroke-miterlimit: 10; fill-rule: nonzero; opacity: 1;" transform=" matrix(1 0 0 1 0 0) " stroke-linecap="round" />
	<path d="M 87.11 40.909 c -1.971 -1.526 -4.774 -1.328 -6.511 0.459 L 66.737 53.195 c 0.575 1.586 1.064 3.38 1.064 4.191 c 0 3.491 -2.818 6.337 -6.3 6.38 l -20.093 1.992 c -0.05 0.006 -0.1 0.008 -0.15 0.008 c -0.762 0 -1.414 -0.578 -1.491 -1.352 c -0.082 -0.825 0.52 -1.56 1.345 -1.641 l 20.31 -2.008 c 1.863 0 3.379 -1.517 3.379 -3.38 c -0.01 -0.65 -0.818 -3.17 -1.374 -4.433 c -0.611 -0.282 -1.286 -0.446 -2.005 -0.446 h -20.6 c -9.842 -2.503 -18.164 -0.206 -25.228 6.066 l 18.442 16.848 l 0.923 -0.62 c 1.23 -0.552 2.546 -0.88 3.888 -0.88 h 17.337 c 5.57 0 10.872 -2.393 14.556 -6.571 l 17.044 -19.329 C 89.656 45.9 89.346 42.64 87.11 40.909 z" style=" stroke-dasharray: none; stroke-linecap: butt; stroke-linejoin: miter; stroke-miterlimit: 10; fill-rule: nonzero; opacity: 1;" transform=" matrix(1 0 0 1 0 0) " stroke-linecap="round" />
</g>
</svg>