<svg viewBox="0 0 118 118" xmlns="http://www.w3.org/2000/svg">
<path d="M50.7575 0.345084C46.1869 0.968874 42.8672 1.83258 38.7777 3.36807C34.4958 5.0475 33.4855 6.05516 34.7845 7.35073C35.6024 8.16645 35.7467 8.16645 38.6334 7.11081C45.1765 4.71162 49.7471 3.79992 57.7336 3.32008L63.7475 2.93621V1.4967V0.0571808L58.6958 0.00919692C55.9054 -0.0387869 52.3451 0.105165 50.7575 0.345084Z" fill="#927DE7"/>
<path d="M70.5793 1.35274C70.0982 1.59265 69.7614 2.31241 69.7614 2.9362C69.7614 3.89588 70.1463 4.18378 72.3113 4.80757C78.0847 6.63096 79.8167 7.25475 83.4731 9.07814C85.59 10.1338 88.9097 12.0531 90.8342 13.3967C94.8274 16.1318 101.9 23.2814 104.594 27.408C108.635 33.406 112.051 41.6592 113.639 49.0007C114.409 52.6955 114.409 64.8834 113.639 68.6741C111.281 79.8064 106.518 89.0673 98.8688 97.2245C95.6934 100.535 95.3085 101.207 95.7415 102.023C96.6556 103.75 98.2433 103.175 101.371 99.9596C118.883 82.2056 123.021 54.5669 111.57 31.8705C107.721 24.1931 101.371 16.7076 94.1539 11.2854C87.4183 6.19911 72.8405 0.057171 70.5793 1.35274Z" fill="#927DE7"/>
<path d="M23.0453 11.9572C8.80437 22.6576 0 40.5076 0 58.5975C0 81.3419 12.6533 101.639 33.1006 111.812C36.8533 113.683 38.7777 113.875 39.6437 112.435C40.0767 111.716 39.9324 111.428 39.0183 110.708C38.3447 110.18 37.0457 109.556 36.0835 109.268C33.1487 108.405 24.2481 102.167 20.2549 98.2802C5.34036 83.5011 0.0962227 61.3326 6.73559 41.0834C10.2958 30.287 18.138 19.6826 26.9905 13.6846C29.4441 12.0052 29.8771 11.5733 29.7328 10.4697C29.4441 8.11847 27.6159 8.50234 23.0453 11.9572Z" fill="#927DE7"/>
<path d="M51.9121 13.2527C48.1594 13.7326 42.7228 15.46 38.7296 17.4273C26.4612 23.5693 17.8493 34.3177 14.1447 48.041C12.8938 52.8394 12.8457 64.3556 14.1447 69.3939C15.2513 73.8564 18.2342 80.862 19.9662 83.1173C21.5539 85.2285 23.2378 85.2285 23.4783 83.1652C23.5745 82.3975 23.4302 81.5338 23.1415 81.1979C21.7944 79.5664 19.1002 73.1846 18.0417 69.058C16.3097 62.2443 16.5022 52.1677 18.5228 46.6015C21.169 39.164 24.7292 33.358 29.4441 28.6556C42.0974 16.0358 60.2354 12.7249 76.3527 20.0185C94.1539 28.1277 104.402 48.185 100.505 67.1386C98.4839 76.9753 92.7586 86.0923 84.7721 92.3302C81.693 94.7294 76.1121 97.8003 72.9368 98.9039C63.7956 101.927 51.9602 101.735 44.07 98.3761C42.4823 97.6564 40.5097 97.0806 39.6918 97.0326C38.3928 96.9846 38.2485 97.1285 38.2485 98.4241C38.2485 100.056 38.8739 100.439 45.0322 102.551C60.8127 107.877 79.4799 103.366 91.7483 91.1785C101.467 81.4858 106.567 66.9947 104.931 53.5112C102.718 35.2773 90.4493 20.5943 72.5038 14.6923C67.2115 12.9169 58.8401 12.341 51.9121 13.2527Z" fill="#927DE7"/>
<path d="M27.0386 89.1632C25.9801 90.2189 26.4131 91.3225 28.6263 93.3378C31.2724 95.785 32.8601 95.881 33.1006 93.6257C33.1968 92.4261 32.8601 91.8983 30.9837 90.3628C28.5781 88.4435 27.9527 88.2515 27.0386 89.1632Z" fill="#927DE7"/>
<path d="M76.2759 38.7471C76 38.8255 75.6357 39.0271 75.4702 39.1839C75.3046 39.3407 75.117 39.4639 75.0397 39.4639C74.9625 39.4639 70.1832 44.2463 64.4216 50.1039C58.66 55.9503 53.8808 60.7439 53.8035 60.7439C53.7262 60.7439 53.66 60.7887 53.66 60.8559C53.66 60.9119 53.5386 60.9679 53.3951 60.9679C53.2185 60.9679 52.5563 60.4527 51.298 59.3327C50.2936 58.4367 49.4658 57.6527 49.4658 57.5967C49.4658 57.5407 49.4106 57.4959 49.3443 57.4959C49.2781 57.4959 48.7594 57.0815 48.1854 56.5775C47.3355 55.8159 47.0375 55.6255 46.5629 55.5023C45.8013 55.3119 43.6379 55.4351 43.075 55.6927C42.6556 55.8831 41.8278 56.3759 41.7395 56.4879C41.7064 56.5215 41.5077 56.6671 41.287 56.8015C40.5585 57.2495 39.2892 58.8287 38.947 59.7135C38.7373 60.2623 38.6931 62.4799 38.8808 63.8239C38.936 64.2495 38.9801 64.7087 38.9801 64.8431C38.9801 64.9999 40.8013 66.8367 44.7858 70.7231C47.9647 73.8255 50.6357 76.3791 50.713 76.4015C50.7903 76.4239 50.9448 76.4799 51.0662 76.5359C51.6843 76.8159 52.7329 76.9839 53.9028 76.9839C54.9404 76.9839 55.2384 76.9503 55.5916 76.7599C55.8675 76.6255 59.4326 73.1311 64.7196 67.8223C69.5099 63.0399 75.8896 56.6447 78.9029 53.6207L84.3995 48.1103L84.4326 46.2287C84.4658 44.4367 84.4216 43.9775 84.1236 43.2159C83.649 42.0287 83.3951 41.6479 82.4349 40.6735C81.585 39.7999 81.2538 39.5423 80.3708 39.0943L79.3223 38.5679L78.053 38.5791C77.3024 38.5791 76.5739 38.6463 76.2759 38.7471Z" fill="#927DE7"/>
<path d="M86.8409 106.677C81.2119 110.084 74.5726 112.483 67.7889 113.539C64.1805 114.115 52.9225 113.923 48.1594 113.251C46.4274 113.011 45.8982 113.107 45.4171 113.779C44.6473 114.835 45.0322 115.89 46.4274 116.418C47.0048 116.61 49.9877 117.09 53.0187 117.378C64.0362 118.529 76.9781 115.986 86.8409 110.756C91.3153 108.405 92.2294 107.205 90.9304 105.574C90.1125 104.662 90.1125 104.662 86.8409 106.677Z" fill="#927DE7"/>
</svg>
