<svg viewBox="0 0 282 405" xmlns="http://www.w3.org/2000/svg">
<path fill-rule="evenodd" clip-rule="evenodd" d="M123.885 331.268C123.028 336.804 129.553 340.391 133.768 336.7L279.133 209.394C281.323 207.477 281.82 204.264 280.313 201.774L180.267 36.4608C177.366 31.6678 170.061 33.1126 169.204 38.649L156.317 121.861C156.102 123.247 156.38 124.664 157.102 125.867L208.899 212.157C210.397 214.652 209.888 217.863 207.692 219.773L132.456 285.183C131.386 286.113 130.681 287.391 130.464 288.792L123.885 331.268Z"/>
<path d="M132.456 285.183L132.784 285.56L132.456 285.183ZM130.464 288.792L129.969 288.716L130.464 288.792ZM208.899 212.157L209.328 211.9L208.899 212.157ZM156.317 121.861L155.823 121.784L156.317 121.861ZM157.102 125.867L156.673 126.124L157.102 125.867ZM180.267 36.4608L179.839 36.7196L180.267 36.4608ZM133.768 336.7L133.438 336.324L133.768 336.7ZM123.885 331.268L123.391 331.191L123.885 331.268ZM279.133 209.394L278.804 209.018L279.133 209.394ZM280.313 201.774L279.886 202.033L280.313 201.774ZM278.804 209.018L133.438 336.324L134.097 337.076L279.463 209.77L278.804 209.018ZM179.839 36.7196L279.886 202.033L280.741 201.515L180.694 36.2019L179.839 36.7196ZM156.811 121.937L169.698 38.7256L168.71 38.5725L155.823 121.784L156.811 121.937ZM156.673 126.124L208.471 212.414L209.328 211.9L157.53 125.61L156.673 126.124ZM207.364 219.396L132.128 284.805L132.784 285.56L208.02 220.15L207.364 219.396ZM124.379 331.344L130.958 288.869L129.969 288.716L123.391 331.191L124.379 331.344ZM132.128 284.805C130.969 285.813 130.205 287.198 129.969 288.716L130.958 288.869C131.157 287.585 131.804 286.412 132.784 285.56L132.128 284.805ZM208.471 212.414C209.844 214.702 209.377 217.645 207.364 219.396L208.02 220.15C210.399 218.081 210.951 214.603 209.328 211.9L208.471 212.414ZM155.823 121.784C155.59 123.286 155.891 124.822 156.673 126.124L157.53 125.61C156.869 124.507 156.614 123.208 156.811 121.937L155.823 121.784ZM180.694 36.2019C177.552 31.0095 169.639 32.5748 168.71 38.5725L169.698 38.7256C170.484 33.6505 177.18 32.3261 179.839 36.7196L180.694 36.2019ZM133.438 336.324C129.575 339.707 123.593 336.419 124.379 331.344L123.391 331.191C122.462 337.189 129.531 341.075 134.097 337.076L133.438 336.324ZM279.463 209.77C281.835 207.693 282.374 204.213 280.741 201.515L279.886 202.033C281.267 204.316 280.811 207.26 278.804 209.018L279.463 209.77Z"/>
<path d="M208.893 212.16C210.391 214.656 209.882 217.867 207.686 219.776L61.8613 346.556C57.6334 350.232 51.1213 346.622 51.9987 341.088L98.3737 48.6351C99.2512 43.1019 106.561 41.6834 109.444 46.4868L208.893 212.16Z"/>
</svg>
