<?xml version="1.0" standalone="no"?>
<!DOCTYPE svg PUBLIC "-//W3C//DTD SVG 20010904//EN"
 "http://www.w3.org/TR/2001/REC-SVG-20010904/DTD/svg10.dtd">
<svg version="1.0" xmlns="http://www.w3.org/2000/svg"
 width="500.000000pt" height="500.000000pt" viewBox="0 0 500.000000 500.000000"
 preserveAspectRatio="xMidYMid meet">

<g transform="translate(0.000000,500.000000) scale(0.100000,-0.100000)"
fill="#000000" stroke="none">
<path d="M2345 4854 c-144 -36 -297 -145 -381 -271 -86 -130 -123 -327 -90
-483 51 -244 251 -445 491 -495 330 -69 653 125 751 450 14 44 18 92 18 180 0
107 -3 129 -30 205 -68 194 -212 333 -419 405 -69 25 -260 30 -340 9z"/>
<path d="M893 4466 c-226 -55 -403 -281 -403 -516 1 -236 153 -444 375 -512
98 -31 235 -30 327 1 307 104 452 446 312 740 -42 90 -150 201 -234 243 -113
56 -258 73 -377 44z"/>
<path d="M3840 4464 c-91 -24 -161 -65 -236 -139 -154 -151 -203 -360 -130
-559 157 -435 756 -477 974 -69 80 151 82 330 5 491 -39 82 -160 200 -243 239
-114 54 -254 68 -370 37z"/>
<path d="M1533 3346 c-88 -28 -179 -110 -225 -204 l-23 -47 0 -670 0 -670 34
-63 c19 -35 54 -81 79 -102 87 -77 167 -100 354 -100 l107 0 3 -543 3 -542 27
-57 c37 -79 98 -142 177 -181 l66 -32 365 0 365 0 66 32 c79 39 140 102 177
181 l27 57 3 541 3 541 147 6 c164 6 209 17 285 72 58 43 100 100 127 172 20
54 20 70 18 707 l-3 651 -28 56 c-32 67 -118 151 -184 182 l-48 22 -940 2
c-754 1 -948 -1 -982 -11z"/>
<path d="M230 3211 c-83 -26 -159 -90 -201 -171 l-24 -45 0 -555 0 -555 27
-50 c30 -59 103 -129 156 -153 25 -11 78 -18 167 -22 l130 -5 5 -455 c5 -441
6 -456 27 -502 30 -66 102 -132 170 -158 54 -20 72 -21 352 -18 290 3 297 4
345 27 61 30 116 86 147 149 23 44 24 60 27 262 l3 216 -73 21 c-198 59 -361
229 -412 429 -14 53 -16 152 -16 705 0 705 1 714 60 831 l28 58 -446 -1 c-246
0 -458 -4 -472 -8z"/>
<path d="M3883 3208 c3 -7 21 -49 39 -93 l33 -80 3 -673 c2 -584 1 -682 -13
-735 -54 -210 -244 -397 -447 -439 l-60 -12 4 -216 c3 -202 5 -218 27 -263 34
-70 101 -132 168 -157 54 -20 71 -21 352 -18 278 3 299 4 342 24 60 28 125 93
153 153 20 44 21 62 26 501 l5 455 130 5 c89 4 142 11 167 22 53 24 126 94
156 153 l27 50 0 555 0 555 -27 50 c-35 68 -102 128 -172 154 -55 20 -72 21
-487 21 -341 0 -430 -3 -426 -12z"/>
</g>
</svg>
