<?xml version="1.0" standalone="no"?>
<!DOCTYPE svg PUBLIC "-//W3C//DTD SVG 20010904//EN"
 "http://www.w3.org/TR/2001/REC-SVG-20010904/DTD/svg10.dtd">
<svg version="1.0" xmlns="http://www.w3.org/2000/svg"
 width="472.000000pt" height="467.000000pt" viewBox="0 0 472.000000 467.000000"
 preserveAspectRatio="xMidYMid meet">

<g transform="translate(0.000000,467.000000) scale(0.100000,-0.100000)"
fill="#000000" stroke="none">
<path d="M2065 4594 c-234 -31 -469 -102 -690 -208 -459 -220 -825 -582 -1050
-1041 -169 -343 -235 -628 -235 -1014 0 -537 166 -1011 502 -1433 84 -106 111
-128 153 -128 60 0 75 23 100 156 62 325 186 569 407 800 79 82 261 234 281
234 4 0 31 -19 60 -43 157 -128 359 -219 572 -258 99 -18 312 -16 417 5 192
37 369 115 518 228 l92 70 55 -38 c30 -21 91 -70 136 -109 249 -218 425 -522
492 -849 l16 -79 -43 -45 c-66 -68 -209 -186 -306 -250 -362 -244 -749 -362
-1182 -362 -333 0 -622 67 -931 216 -126 61 -150 64 -189 22 -28 -30 -27 -88
3 -115 55 -51 326 -168 503 -216 231 -64 369 -82 624 -81 308 1 550 45 815
148 804 315 1356 1041 1446 1905 14 139 6 437 -15 571 -44 268 -138 543 -262
762 -64 113 -182 285 -207 303 -33 23 -84 19 -112 -10 -40 -39 -33 -79 26
-160 222 -304 361 -675 398 -1059 15 -148 14 -248 -4 -398 -36 -307 -121 -574
-263 -823 -57 -100 -140 -225 -150 -225 -4 0 -22 48 -40 108 -115 374 -404
745 -739 947 -85 51 -108 48 -190 -26 -335 -298 -788 -363 -1178 -167 -102 52
-146 82 -234 163 -91 83 -112 85 -214 19 -344 -222 -587 -535 -717 -921 -21
-62 -42 -114 -46 -115 -11 -2 -101 131 -157 232 -364 649 -353 1448 28 2095
173 294 447 567 743 742 242 143 492 229 797 274 108 16 418 16 535 1 196 -27
470 -106 607 -176 67 -33 122 -34 151 -3 26 27 29 82 7 114 -30 43 -346 160
-544 203 -239 51 -560 65 -786 34z"/>
<path d="M2190 3856 c-416 -96 -689 -418 -707 -832 -19 -430 249 -787 677
-900 94 -25 310 -25 410 0 319 79 570 328 651 646 31 118 31 320 1 435 -81
306 -326 555 -627 636 -99 27 -320 35 -405 15z m355 -184 c200 -53 362 -187
455 -375 55 -111 73 -204 67 -342 -5 -135 -34 -232 -102 -341 -88 -140 -227
-251 -379 -301 -108 -35 -274 -43 -379 -18 -83 19 -211 79 -279 130 -104 77
-218 252 -252 387 -63 249 14 513 203 691 181 171 427 233 666 169z"/>
</g>
</svg>
